<?xml version="1.0" encoding="utf-8"?>
<!-- Generator: Adobe Illustrator 27.5.0, SVG Export Plug-In . SVG Version: 6.00 Build 0)  -->
<svg version="1.1" id="Capa_1" xmlns="http://www.w3.org/2000/svg" xmlns:xlink="http://www.w3.org/1999/xlink" x="0px" y="0px"
	 viewBox="0 0 443.479 414.34" style="enable-background:new 0 0 443.479 414.34;" xml:space="preserve">
<rect x="0" style="fill:#5B53A3;" width="443.48" height="414.34"/>
<g>
	<g>
		<path style="fill:#FFFFFF;" d="M222.065,306.582c-59.782,0-108.418-48.636-108.418-108.419
			c0-59.783,48.636-108.419,108.418-108.419c59.784,0,108.42,48.637,108.42,108.419
			C330.485,257.945,281.849,306.582,222.065,306.582z M222.065,92.049c-58.511,0-106.114,47.603-106.114,106.114
			c0,58.511,47.602,106.114,106.114,106.114c58.513,0,106.115-47.603,106.115-106.114C328.18,139.651,280.578,92.049,222.065,92.049
			z"/>
	</g>
	<g>
		<path style="fill:#FFFFFF;" d="M197.633,282.653c-17.945-5.18-34.105-16.254-45.501-31.183
			c-11.773-15.421-17.996-33.855-17.996-53.307c0-48.485,39.445-87.931,87.93-87.931c18.506,0,36.21,5.683,51.198,16.434
			l-1.345,1.872c-14.593-10.468-31.832-16.001-49.853-16.001c-47.214,0-85.625,38.412-85.625,85.625
			c0,37.934,25.427,71.767,61.832,82.276L197.633,282.653z"/>
	</g>
	<g>
		<g>
			
				<rect x="218.294" y="71.707" transform="matrix(0.016 -0.9999 0.9999 0.016 146.199 297.1353)" style="fill:#FFFFFF;" width="11.524" height="5.172"/>
			
				<rect x="214.314" y="319.447" transform="matrix(0.0161 -0.9999 0.9999 0.0161 -105.4678 536.8818)" style="fill:#FFFFFF;" width="11.524" height="5.172"/>
		</g>
		<g>
			
				<rect x="105.115" y="250.21" transform="matrix(0.8975 -0.4411 0.4411 0.8975 -100.1345 74.8251)" style="fill:#FFFFFF;" width="11.525" height="5.172"/>
			
				<rect x="327.493" y="140.943" transform="matrix(0.8975 -0.4411 0.4411 0.8975 -29.1387 161.7076)" style="fill:#FFFFFF;" width="11.523" height="5.172"/>
		</g>
		<g>
			
				<rect x="101.011" y="240.911" transform="matrix(0.9307 -0.3659 0.3659 0.9307 -81.6846 55.9469)" style="fill:#FFFFFF;" width="11.524" height="5.172"/>
			
				<rect x="331.598" y="150.243" transform="matrix(0.9307 -0.3659 0.3659 0.9307 -32.5257 134.0378)" style="fill:#FFFFFF;" width="11.523" height="5.172"/>
		</g>
		<g>
			
				<rect x="97.895" y="232.005" transform="matrix(0.9558 -0.2941 0.2941 0.9558 -64.4178 40.8682)" style="fill:#FFFFFF;" width="11.524" height="5.172"/>
			
				<rect x="334.715" y="159.149" transform="matrix(0.9557 -0.2942 0.2942 0.9557 -32.514 107.3232)" style="fill:#FFFFFF;" width="11.523" height="5.172"/>
		</g>
		<g>
			
				<rect x="95.465" y="222.887" transform="matrix(0.9755 -0.2202 0.2202 0.9755 -47.1593 27.8208)" style="fill:#FFFFFF;" width="11.525" height="5.172"/>
			
				<rect x="337.143" y="168.267" transform="matrix(0.9754 -0.2206 0.2206 0.9754 -29.2393 79.8406)" style="fill:#FFFFFF;" width="11.524" height="5.172"/>
		</g>
		<g>
			
				<rect x="93.738" y="213.611" transform="matrix(0.9894 -0.1453 0.1453 0.9894 -30.3573 16.7516)" style="fill:#FFFFFF;" width="11.525" height="5.172"/>
			
				<rect x="338.871" y="177.544" transform="matrix(0.9893 -0.1457 0.1457 0.9893 -22.5691 52.1405)" style="fill:#FFFFFF;" width="11.524" height="5.171"/>
		</g>
		<g>
			
				<rect x="92.721" y="204.231" transform="matrix(0.9975 -0.07 0.07 0.9975 -14.228 7.3969)" style="fill:#FFFFFF;" width="11.525" height="5.171"/>
			
				<rect x="339.888" y="186.924" transform="matrix(0.9976 -0.0699 0.0699 0.9976 -12.3968 24.6147)" style="fill:#FFFFFF;" width="11.524" height="5.172"/>
		</g>
		<g>
			
				<rect x="95.597" y="191.623" transform="matrix(0.0061 -1 1 0.0061 -99.8005 294.3565)" style="fill:#FFFFFF;" width="5.172" height="11.525"/>
			
				<rect x="343.365" y="193.179" transform="matrix(0.0064 -1 1 0.0064 144.7926 543.6071)" style="fill:#FFFFFF;" width="5.172" height="11.524"/>
		</g>
		<g>
			
				<rect x="96.015" y="182.197" transform="matrix(0.0824 -0.9966 0.9966 0.0824 -96.8444 270.7354)" style="fill:#FFFFFF;" width="5.172" height="11.524"/>
			
				<rect x="342.946" y="202.605" transform="matrix(0.0824 -0.9966 0.9966 0.0824 109.3902 535.5466)" style="fill:#FFFFFF;" width="5.172" height="11.524"/>
		</g>
		<g>
			
				<rect x="97.15" y="172.83" transform="matrix(0.1582 -0.9874 0.9874 0.1582 -92.3821 248.8274)" style="fill:#FFFFFF;" width="5.171" height="11.525"/>
			
				<rect x="341.811" y="211.973" transform="matrix(0.1581 -0.9874 0.9874 0.1581 74.9397 523.3659)" style="fill:#FFFFFF;" width="5.172" height="11.524"/>
		</g>
		<g>
			
				<rect x="98.994" y="163.576" transform="matrix(0.2326 -0.9726 0.9726 0.2326 -86.7441 228.7354)" style="fill:#FFFFFF;" width="5.172" height="11.524"/>
			
				<rect x="339.967" y="221.227" transform="matrix(0.2327 -0.9726 0.9726 0.2327 42.0965 507.3312)" style="fill:#FFFFFF;" width="5.172" height="11.523"/>
		</g>
		<g>
			
				<rect x="101.538" y="154.489" transform="matrix(0.3062 -0.952 0.952 0.3062 -80.3157 210.2967)" style="fill:#FFFFFF;" width="5.171" height="11.525"/>
			
				<rect x="337.423" y="230.313" transform="matrix(0.3061 -0.952 0.952 0.3061 11.1761 487.4835)" style="fill:#FFFFFF;" width="5.172" height="11.524"/>
		</g>
		<g>
			
				<rect x="104.766" y="145.623" transform="matrix(0.3776 -0.926 0.926 0.3776 -73.3614 193.6308)" style="fill:#FFFFFF;" width="5.171" height="11.524"/>
			
				<rect x="334.196" y="239.18" transform="matrix(0.3776 -0.926 0.926 0.3776 -17.2019 464.2905)" style="fill:#FFFFFF;" width="5.172" height="11.524"/>
		</g>
		<g>
			
				<rect x="108.658" y="137.028" transform="matrix(0.4469 -0.8946 0.8946 0.4469 -66.2072 178.5013)" style="fill:#FFFFFF;" width="5.172" height="11.525"/>
			
				<rect x="330.303" y="247.775" transform="matrix(0.4469 -0.8946 0.8946 0.4469 -42.6978 438.0107)" style="fill:#FFFFFF;" width="5.172" height="11.524"/>
		</g>
		<g>
			
				<rect x="113.194" y="128.754" transform="matrix(0.5139 -0.8578 0.8578 0.5139 -59.1153 164.7028)" style="fill:#FFFFFF;" width="5.172" height="11.525"/>
			
				<rect x="325.767" y="256.049" transform="matrix(0.5139 -0.8579 0.8579 0.5139 -64.9819 408.9447)" style="fill:#FFFFFF;" width="5.173" height="11.524"/>
		</g>
		<g>
			
				<rect x="118.347" y="120.849" transform="matrix(0.5777 -0.8162 0.8162 0.5777 -52.2776 152.1725)" style="fill:#FFFFFF;" width="5.172" height="11.525"/>
			
				<rect x="320.615" y="263.954" transform="matrix(0.5776 -0.8164 0.8164 0.5776 -83.6479 377.787)" style="fill:#FFFFFF;" width="5.172" height="11.524"/>
		</g>
		<g>
			
				<rect x="124.086" y="113.359" transform="matrix(0.6381 -0.77 0.77 0.6381 -45.8745 140.6492)" style="fill:#FFFFFF;" width="5.172" height="11.525"/>
			
				<rect x="314.875" y="271.443" transform="matrix(0.6381 -0.77 0.77 0.6381 -98.5439 344.7636)" style="fill:#FFFFFF;" width="5.172" height="11.524"/>
		</g>
		<g>
			
				<rect x="130.379" y="106.328" transform="matrix(0.695 -0.719 0.719 0.695 -40.0391 129.7983)" style="fill:#FFFFFF;" width="5.172" height="11.524"/>
			
				<rect x="308.583" y="278.474" transform="matrix(0.6948 -0.7192 0.7192 0.6948 -109.4554 310.5331)" style="fill:#FFFFFF;" width="5.172" height="11.524"/>
		</g>
		<g>
			
				<rect x="137.188" y="99.796" transform="matrix(0.7476 -0.6641 0.6641 0.7476 -34.8287 119.4621)" style="fill:#FFFFFF;" width="5.172" height="11.524"/>
			
				<rect x="301.773" y="285.007" transform="matrix(0.7475 -0.6642 0.6642 0.7475 -116.2949 275.5758)" style="fill:#FFFFFF;" width="5.172" height="11.524"/>
		</g>
		<g>
			
				<rect x="144.474" y="93.802" transform="matrix(0.796 -0.6053 0.6053 0.796 -30.265 109.3356)" style="fill:#FFFFFF;" width="5.172" height="11.525"/>
			
				<rect x="294.487" y="291.001" transform="matrix(0.7959 -0.6054 0.6054 0.7959 -119.033 240.4036)" style="fill:#FFFFFF;" width="5.172" height="11.524"/>
		</g>
		<g>
			
				<rect x="152.196" y="88.379" transform="matrix(0.8397 -0.543 0.543 0.8397 -26.312 99.1429)" style="fill:#FFFFFF;" width="5.172" height="11.524"/>
			
				<rect x="286.765" y="296.424" transform="matrix(0.8397 -0.5431 0.5431 0.8397 -117.7196 205.5743)" style="fill:#FFFFFF;" width="5.172" height="11.524"/>
		</g>
		<g>
			
				<rect x="160.309" y="83.56" transform="matrix(0.8786 -0.4775 0.4775 0.8786 -22.8811 88.6322)" style="fill:#FFFFFF;" width="5.172" height="11.524"/>
			
				<rect x="278.653" y="301.243" transform="matrix(0.8785 -0.4777 0.4777 0.8785 -112.4916 171.6399)" style="fill:#FFFFFF;" width="5.171" height="11.524"/>
		</g>
		<g>
			
				<rect x="168.764" y="79.372" transform="matrix(0.9124 -0.4092 0.4092 0.9124 -19.8347 77.579)" style="fill:#FFFFFF;" width="5.172" height="11.524"/>
			
				<rect x="270.197" y="305.431" transform="matrix(0.9124 -0.4093 0.4093 0.9124 -103.4845 138.9302)" style="fill:#FFFFFF;" width="5.171" height="11.523"/>
		</g>
		<g>
			
				<rect x="177.514" y="75.84" transform="matrix(0.9409 -0.3386 0.3386 0.9409 -16.9916 65.796)" style="fill:#FFFFFF;" width="5.172" height="11.524"/>
			
				<rect x="261.448" y="308.963" transform="matrix(0.9409 -0.3388 0.3388 0.9409 -91.0169 108.0738)" style="fill:#FFFFFF;" width="5.172" height="11.523"/>
		</g>
		<g>
			
				<rect x="186.507" y="72.984" transform="matrix(0.9639 -0.2662 0.2662 0.9639 -14.1407 53.1882)" style="fill:#FFFFFF;" width="5.172" height="11.524"/>
			
				<rect x="252.455" y="311.819" transform="matrix(0.9639 -0.2661 0.2661 0.9639 -75.316 79.3207)" style="fill:#FFFFFF;" width="5.171" height="11.523"/>
		</g>
		<g>
			
				<rect x="195.692" y="70.821" transform="matrix(0.9814 -0.192 0.192 0.9814 -11.0135 39.4856)" style="fill:#FFFFFF;" width="5.172" height="11.524"/>
			
				<rect x="243.27" y="313.982" transform="matrix(0.9814 -0.1919 0.1919 0.9814 -56.7857 53.1179)" style="fill:#FFFFFF;" width="5.172" height="11.524"/>
		</g>
		<g>
			
				<rect x="204.243" y="69.456" transform="matrix(0.9924 -0.123 0.123 0.9924 -7.6837 26.0217)" style="fill:#FFFFFF;" width="5.172" height="11.524"/>
			
				<rect x="234.719" y="315.348" transform="matrix(0.9924 -0.123 0.123 0.9924 -37.7089 31.6404)" style="fill:#FFFFFF;" width="5.171" height="11.523"/>
		</g>
		<g>
			
				<rect x="212.53" y="68.711" transform="matrix(0.9984 -0.0562 0.0562 0.9984 -3.8447 12.2049)" style="fill:#FFFFFF;" width="5.172" height="11.524"/>
			
				<rect x="226.431" y="316.093" transform="matrix(0.9984 -0.0562 0.0562 0.9984 -17.7188 13.3735)" style="fill:#FFFFFF;" width="5.172" height="11.524"/>
		</g>
		<g>
			
				<rect x="205.948" y="319.03" transform="matrix(0.0835 -0.9965 0.9965 0.0835 -126.4671 505.7189)" style="fill:#FFFFFF;" width="11.524" height="5.172"/>
			
				<rect x="226.66" y="72.125" transform="matrix(0.0836 -0.9965 0.9965 0.0836 138.5512 300.0766)" style="fill:#FFFFFF;" width="11.524" height="5.172"/>
		</g>
		<g>
			
				<rect x="195.585" y="317.719" transform="matrix(0.1673 -0.9859 0.9859 0.1673 -148.1283 465.2275)" style="fill:#FFFFFF;" width="11.525" height="5.172"/>
			
				<rect x="237.024" y="73.437" transform="matrix(0.1674 -0.9859 0.9859 0.1674 127.202 302.6595)" style="fill:#FFFFFF;" width="11.524" height="5.171"/>
		</g>
		<g>
			
				<rect x="185.056" y="315.458" transform="matrix(0.2523 -0.9676 0.9676 0.2523 -165.0804 422.4454)" style="fill:#FFFFFF;" width="11.524" height="5.172"/>
			
				<rect x="247.552" y="75.697" transform="matrix(0.2522 -0.9677 0.9677 0.2522 113.6791 303.6679)" style="fill:#FFFFFF;" width="11.524" height="5.172"/>
		</g>
		<g>
			
				<rect x="173.936" y="311.993" transform="matrix(0.342 -0.9397 0.9397 0.342 -177.3712 375.8438)" style="fill:#FFFFFF;" width="11.524" height="5.172"/>
			
				<rect x="258.673" y="79.162" transform="matrix(0.342 -0.9397 0.9397 0.342 97.1752 302.2756)" style="fill:#FFFFFF;" width="11.524" height="5.171"/>
		</g>
		<g>
			
				<rect x="163.89" y="307.829" transform="matrix(0.423 -0.9061 0.9061 0.423 -183.3878 332.8271)" style="fill:#FFFFFF;" width="11.524" height="5.171"/>
			
				<rect x="268.719" y="83.326" transform="matrix(0.423 -0.9061 0.9061 0.423 80.5323 298.2898)" style="fill:#FFFFFF;" width="11.524" height="5.171"/>
		</g>
		<g>
			
				<rect x="154.639" y="303.026" transform="matrix(0.4978 -0.8673 0.8673 0.4978 -184.5017 292.6065)" style="fill:#FFFFFF;" width="11.525" height="5.172"/>
			
				<rect x="277.969" y="88.129" transform="matrix(0.4976 -0.8674 0.8674 0.4976 63.868 291.6944)" style="fill:#FFFFFF;" width="11.524" height="5.171"/>
		</g>
		<g>
			
				<rect x="145.825" y="297.462" transform="matrix(0.5688 -0.8225 0.8225 0.5688 -181.4201 254.0741)" style="fill:#FFFFFF;" width="11.525" height="5.173"/>
			
				<rect x="286.783" y="93.693" transform="matrix(0.5689 -0.8224 0.8224 0.5689 46.9421 282.1049)" style="fill:#FFFFFF;" width="11.524" height="5.171"/>
		</g>
		<g>
			
				<rect x="137.51" y="291.177" transform="matrix(0.6359 -0.7718 0.7718 0.6359 -174.5506 217.5254)" style="fill:#FFFFFF;" width="11.525" height="5.172"/>
			
				<rect x="295.098" y="99.978" transform="matrix(0.6357 -0.7719 0.7719 0.6357 30.4211 269.5938)" style="fill:#FFFFFF;" width="11.524" height="5.172"/>
		</g>
		<g>
			
				<rect x="129.752" y="284.215" transform="matrix(0.6986 -0.7155 0.7155 0.6986 -164.3645 183.4015)" style="fill:#FFFFFF;" width="11.525" height="5.172"/>
			
				<rect x="302.856" y="106.94" transform="matrix(0.6985 -0.7156 0.7156 0.6985 14.6691 253.8694)" style="fill:#FFFFFF;" width="11.524" height="5.172"/>
		</g>
		<g>
			
				<rect x="122.608" y="276.625" transform="matrix(0.7564 -0.6541 0.6541 0.7564 -151.3656 151.9885)" style="fill:#FFFFFF;" width="11.524" height="5.171"/>
			
				<rect x="310.001" y="114.53" transform="matrix(0.7563 -0.6543 0.6543 0.7563 0.3378 235.1378)" style="fill:#FFFFFF;" width="11.524" height="5.171"/>
		</g>
		<g>
			
				<rect x="116.126" y="268.462" transform="matrix(0.8087 -0.5882 0.5882 0.8087 -136.1176 123.5466)" style="fill:#FFFFFF;" width="11.525" height="5.171"/>
			
				<rect x="316.482" y="122.693" transform="matrix(0.8085 -0.5885 0.5885 0.8085 -12.0103 213.6526)" style="fill:#FFFFFF;" width="11.524" height="5.171"/>
		</g>
		<g>
			
				<rect x="110.354" y="259.783" transform="matrix(0.8552 -0.5182 0.5182 0.8552 -119.1563 98.1521)" style="fill:#FFFFFF;" width="11.525" height="5.172"/>
			
				<rect x="322.254" y="131.372" transform="matrix(0.8552 -0.5183 0.5183 0.8552 -21.9323 189.4126)" style="fill:#FFFFFF;" width="11.525" height="5.172"/>
		</g>
	</g>
	<g>
		<g>
			
				<rect x="219.924" y="126.333" transform="matrix(0.016 -0.9999 0.9999 0.016 91.8492 348.9305)" style="fill:#FFFFFF;" width="6.546" height="2.938"/>
			
				<rect x="217.663" y="267.056" transform="matrix(0.0161 -0.9999 0.9999 0.0161 -51.1185 485.0978)" style="fill:#FFFFFF;" width="6.546" height="2.937"/>
		</g>
		<g>
			
				<rect x="155.636" y="227.727" transform="matrix(0.8974 -0.4413 0.4413 0.8974 -84.8267 93.6386)" style="fill:#FFFFFF;" width="6.546" height="2.938"/>
			
				<rect x="281.951" y="165.661" transform="matrix(0.8974 -0.4413 0.4413 0.8974 -44.4788 143.0217)" style="fill:#FFFFFF;" width="6.546" height="2.937"/>
		</g>
		<g>
			
				<rect x="153.304" y="222.445" transform="matrix(0.9306 -0.3661 0.3661 0.9306 -71.1059 72.87)" style="fill:#FFFFFF;" width="6.546" height="2.938"/>
			
				<rect x="284.284" y="170.944" transform="matrix(0.9307 -0.3658 0.3658 0.9307 -43.1383 117.1336)" style="fill:#FFFFFF;" width="6.546" height="2.937"/>
		</g>
		<g>
			
				<rect x="151.535" y="217.386" transform="matrix(0.9558 -0.2942 0.2942 0.9558 -57.5306 55.2233)" style="fill:#FFFFFF;" width="6.546" height="2.938"/>
			
				<rect x="286.053" y="176.002" transform="matrix(0.9558 -0.2942 0.2942 0.9558 -39.4042 92.9607)" style="fill:#FFFFFF;" width="6.545" height="2.938"/>
		</g>
		<g>
			
				<rect x="150.155" y="212.207" transform="matrix(0.9755 -0.2201 0.2201 0.9755 -43.2607 39.0016)" style="fill:#FFFFFF;" width="6.547" height="2.938"/>
			
				<rect x="287.432" y="181.181" transform="matrix(0.9755 -0.2201 0.2201 0.9755 -33.0688 68.4529)" style="fill:#FFFFFF;" width="6.547" height="2.938"/>
		</g>
		<g>
			
				<rect x="149.173" y="206.938" transform="matrix(0.9894 -0.1455 0.1455 0.9894 -28.6937 24.3917)" style="fill:#FFFFFF;" width="6.546" height="2.938"/>
			
				<rect x="288.414" y="186.451" transform="matrix(0.9893 -0.1457 0.1457 0.9893 -24.2604 44.4891)" style="fill:#FFFFFF;" width="6.547" height="2.937"/>
		</g>
		<g>
			
				<rect x="148.595" y="201.609" transform="matrix(0.9976 -0.0699 0.0699 0.9976 -13.8329 11.1203)" style="fill:#FFFFFF;" width="6.546" height="2.938"/>
			
				<rect x="288.992" y="191.779" transform="matrix(0.9976 -0.0695 0.0695 0.9976 -12.7219 20.776)" style="fill:#FFFFFF;" width="6.545" height="2.938"/>
		</g>
		<g>
			
				<rect x="150.229" y="194.448" transform="matrix(0.0062 -1 1 0.0062 -46.9538 348.1982)" style="fill:#FFFFFF;" width="2.938" height="6.546"/>
			
				<rect x="290.967" y="195.332" transform="matrix(0.0062 -1 1 0.0062 92.0323 489.8109)" style="fill:#FFFFFF;" width="2.937" height="6.546"/>
		</g>
		<g>
			
				<rect x="150.467" y="189.094" transform="matrix(0.0828 -0.9966 0.9966 0.0828 -52.3485 327.8566)" style="fill:#FFFFFF;" width="2.937" height="6.546"/>
			
				<rect x="290.729" y="200.686" transform="matrix(0.0821 -0.9966 0.9966 0.0821 64.9356 478.4239)" style="fill:#FFFFFF;" width="2.937" height="6.547"/>
		</g>
		<g>
			
				<rect x="151.111" y="183.773" transform="matrix(0.1579 -0.9874 0.9874 0.1579 -56.2163 308.1699)" style="fill:#FFFFFF;" width="2.937" height="6.546"/>
			
				<rect x="290.084" y="206.008" transform="matrix(0.1579 -0.9874 0.9874 0.1579 38.8527 464.1215)" style="fill:#FFFFFF;" width="2.938" height="6.545"/>
		</g>
		<g>
			
				<rect x="152.159" y="178.517" transform="matrix(0.2325 -0.9726 0.9726 0.2325 -58.8998 288.9394)" style="fill:#FFFFFF;" width="2.938" height="6.546"/>
			
				<rect x="289.036" y="211.264" transform="matrix(0.233 -0.9725 0.9725 0.233 14.178 447.0498)" style="fill:#FFFFFF;" width="2.938" height="6.546"/>
		</g>
		<g>
			
				<rect x="153.604" y="173.355" transform="matrix(0.306 -0.952 0.952 0.306 -60.538 270.2083)" style="fill:#FFFFFF;" width="2.938" height="6.546"/>
			
				<rect x="287.592" y="216.425" transform="matrix(0.3059 -0.952 0.952 0.3059 -8.5388 427.6823)" style="fill:#FFFFFF;" width="2.938" height="6.546"/>
		</g>
		<g>
			
				<rect x="155.437" y="168.319" transform="matrix(0.3776 -0.926 0.926 0.3776 -61.2266 252.1005)" style="fill:#FFFFFF;" width="2.938" height="6.546"/>
			
				<rect x="285.758" y="221.461" transform="matrix(0.3776 -0.926 0.926 0.3776 -29.3173 405.8543)" style="fill:#FFFFFF;" width="2.938" height="6.545"/>
		</g>
		<g>
			
				<rect x="157.648" y="163.437" transform="matrix(0.4469 -0.8946 0.8946 0.4469 -61.1314 234.5409)" style="fill:#FFFFFF;" width="2.938" height="6.546"/>
			
				<rect x="283.547" y="226.344" transform="matrix(0.447 -0.8945 0.8945 0.447 -47.7898 381.926)" style="fill:#FFFFFF;" width="2.938" height="6.545"/>
		</g>
		<g>
			
				<rect x="160.225" y="158.737" transform="matrix(0.5139 -0.8578 0.8578 0.5139 -60.3824 217.4574)" style="fill:#FFFFFF;" width="2.938" height="6.546"/>
			
				<rect x="280.97" y="231.043" transform="matrix(0.5138 -0.8579 0.8579 0.5138 -63.6975 356.2406)" style="fill:#FFFFFF;" width="2.938" height="6.546"/>
		</g>
		<g>
			
				<rect x="163.151" y="154.247" transform="matrix(0.5778 -0.8162 0.8162 0.5778 -59.062 200.8644)" style="fill:#FFFFFF;" width="2.938" height="6.547"/>
			
				<rect x="278.044" y="235.534" transform="matrix(0.5778 -0.8162 0.8162 0.5778 -76.8991 328.9535)" style="fill:#FFFFFF;" width="2.938" height="6.546"/>
		</g>
		<g>
			
				<rect x="166.411" y="149.993" transform="matrix(0.638 -0.77 0.77 0.638 -57.2484 184.7496)" style="fill:#FFFFFF;" width="2.937" height="6.546"/>
			
				<rect x="274.785" y="239.788" transform="matrix(0.6381 -0.7699 0.7699 0.6381 -87.1711 300.6553)" style="fill:#FFFFFF;" width="2.938" height="6.545"/>
		</g>
		<g>
			
				<rect x="169.986" y="145.999" transform="matrix(0.6948 -0.7192 0.7192 0.6948 -55.0284 168.8755)" style="fill:#FFFFFF;" width="2.937" height="6.546"/>
			
				<rect x="271.21" y="243.782" transform="matrix(0.6952 -0.7188 0.7188 0.6952 -94.4748 271.3009)" style="fill:#FFFFFF;" width="2.938" height="6.546"/>
		</g>
		<g>
			
				<rect x="173.854" y="142.289" transform="matrix(0.7477 -0.6641 0.6641 0.7477 -52.4241 153.1525)" style="fill:#FFFFFF;" width="2.938" height="6.546"/>
			
				<rect x="267.342" y="247.492" transform="matrix(0.7477 -0.6641 0.6641 0.7477 -98.6965 241.7857)" style="fill:#FFFFFF;" width="2.939" height="6.546"/>
		</g>
		<g>
			
				<rect x="177.993" y="138.883" transform="matrix(0.7959 -0.6054 0.6054 0.7959 -49.4375 137.6588)" style="fill:#FFFFFF;" width="2.937" height="6.547"/>
			
				<rect x="263.202" y="250.897" transform="matrix(0.7958 -0.6055 0.6055 0.7958 -99.8666 212.1548)" style="fill:#FFFFFF;" width="2.938" height="6.546"/>
		</g>
		<g>
			
				<rect x="182.378" y="135.803" transform="matrix(0.8398 -0.5429 0.5429 0.8398 -46.0525 122.1028)" style="fill:#FFFFFF;" width="2.938" height="6.546"/>
			
				<rect x="258.817" y="253.977" transform="matrix(0.8397 -0.5431 0.5431 0.8397 -97.9787 182.5977)" style="fill:#FFFFFF;" width="2.937" height="6.546"/>
		</g>
		<g>
			
				<rect x="186.987" y="133.066" transform="matrix(0.8785 -0.4777 0.4777 0.8785 -42.2344 106.5748)" style="fill:#FFFFFF;" width="2.938" height="6.546"/>
			
				<rect x="254.209" y="256.715" transform="matrix(0.8786 -0.4775 0.4775 0.8786 -93.1098 153.6305)" style="fill:#FFFFFF;" width="2.938" height="6.546"/>
		</g>
		<g>
			
				<rect x="191.79" y="130.687" transform="matrix(0.9123 -0.4094 0.4094 0.9123 -37.907 90.8712)" style="fill:#FFFFFF;" width="2.938" height="6.546"/>
			
				<rect x="249.406" y="259.094" transform="matrix(0.9124 -0.4094 0.4094 0.9124 -85.4261 125.7061)" style="fill:#FFFFFF;" width="2.938" height="6.545"/>
		</g>
		<g>
			
				<rect x="196.76" y="128.681" transform="matrix(0.941 -0.3385 0.3385 0.941 -32.963 74.8852)" style="fill:#FFFFFF;" width="2.937" height="6.546"/>
			
				<rect x="244.436" y="261.1" transform="matrix(0.9409 -0.3388 0.3388 0.9409 -75.0259 98.9471)" style="fill:#FFFFFF;" width="2.938" height="6.546"/>
		</g>
		<g>
			
				<rect x="201.868" y="127.059" transform="matrix(0.9639 -0.2663 0.2663 0.9639 -27.3629 58.8486)" style="fill:#FFFFFF;" width="2.937" height="6.545"/>
			
				<rect x="239.328" y="262.723" transform="matrix(0.964 -0.266 0.266 0.964 -62.0774 73.6315)" style="fill:#FFFFFF;" width="2.937" height="6.545"/>
		</g>
		<g>
			
				<rect x="207.085" y="125.83" transform="matrix(0.9814 -0.1918 0.1918 0.9814 -20.8932 42.4061)" style="fill:#FFFFFF;" width="2.937" height="6.546"/>
			
				<rect x="234.11" y="263.951" transform="matrix(0.9814 -0.192 0.192 0.9814 -46.9174 50.1943)" style="fill:#FFFFFF;" width="2.938" height="6.546"/>
		</g>
		<g>
			
				<rect x="211.943" y="125.054" transform="matrix(0.9924 -0.123 0.123 0.9924 -14.1615 27.219)" style="fill:#FFFFFF;" width="2.938" height="6.546"/>
			
				<rect x="229.253" y="264.726" transform="matrix(0.9924 -0.123 0.123 0.9924 -31.2077 30.4091)" style="fill:#FFFFFF;" width="2.938" height="6.546"/>
		</g>
		<g>
			
				<rect x="216.65" y="124.631" transform="matrix(0.9984 -0.0562 0.0562 0.9984 -6.8454 12.4642)" style="fill:#FFFFFF;" width="2.938" height="6.546"/>
			
				<rect x="224.546" y="265.15" transform="matrix(0.9984 -0.0562 0.0562 0.9984 -14.7168 13.1156)" style="fill:#FFFFFF;" width="2.938" height="6.546"/>
		</g>
		<g>
			
				<rect x="212.911" y="266.818" transform="matrix(0.0834 -0.9965 0.9965 0.0834 -69.202 461.3368)" style="fill:#FFFFFF;" width="6.546" height="2.938"/>
			
				<rect x="224.676" y="126.571" transform="matrix(0.0835 -0.9965 0.9965 0.0835 81.3274 344.5037)" style="fill:#FFFFFF;" width="6.546" height="2.937"/>
		</g>
		<g>
			
				<rect x="207.025" y="266.073" transform="matrix(0.1674 -0.9859 0.9859 0.1674 -88.6713 430.089)" style="fill:#FFFFFF;" width="6.546" height="2.937"/>
			
				<rect x="230.563" y="127.315" transform="matrix(0.1674 -0.9859 0.9859 0.1674 67.7269 337.7633)" style="fill:#FFFFFF;" width="6.546" height="2.937"/>
		</g>
		<g>
			
				<rect x="201.044" y="264.789" transform="matrix(0.2524 -0.9676 0.9676 0.2524 -104.887 396.7632)" style="fill:#FFFFFF;" width="6.546" height="2.937"/>
			
				<rect x="236.544" y="128.6" transform="matrix(0.2523 -0.9676 0.9676 0.2523 53.4432 329.3041)" style="fill:#FFFFFF;" width="6.546" height="2.938"/>
		</g>
		<g>
			
				<rect x="194.728" y="262.821" transform="matrix(0.3423 -0.9396 0.9396 0.3423 -118.0971 359.8722)" style="fill:#FFFFFF;" width="6.546" height="2.938"/>
			
				<rect x="242.86" y="130.567" transform="matrix(0.3418 -0.9398 0.9398 0.3418 37.9184 318.2126)" style="fill:#FFFFFF;" width="6.546" height="2.938"/>
		</g>
		<g>
			
				<rect x="189.021" y="260.456" transform="matrix(0.423 -0.9061 0.9061 0.423 -126.3836 325.3763)" style="fill:#FFFFFF;" width="6.546" height="2.938"/>
			
				<rect x="248.566" y="132.933" transform="matrix(0.4232 -0.906 0.906 0.4232 23.49 305.7012)" style="fill:#FFFFFF;" width="6.546" height="2.937"/>
		</g>
		<g>
			
				<rect x="183.766" y="257.728" transform="matrix(0.4977 -0.8674 0.8674 0.4977 -130.8627 292.4349)" style="fill:#FFFFFF;" width="6.547" height="2.938"/>
			
				<rect x="253.821" y="135.661" transform="matrix(0.4974 -0.8675 0.8675 0.4974 10.2501 291.9528)" style="fill:#FFFFFF;" width="6.546" height="2.937"/>
		</g>
		<g>
			
				<rect x="178.76" y="254.567" transform="matrix(0.5689 -0.8224 0.8224 0.5689 -132.0912 260.0853)" style="fill:#FFFFFF;" width="6.545" height="2.938"/>
			
				<rect x="258.827" y="138.822" transform="matrix(0.5687 -0.8225 0.8225 0.5687 -2.3514 276.0965)" style="fill:#FFFFFF;" width="6.546" height="2.937"/>
		</g>
		<g>
			
				<rect x="174.036" y="250.997" transform="matrix(0.6359 -0.7718 0.7718 0.6359 -130.2887 228.7804)" style="fill:#FFFFFF;" width="6.547" height="2.938"/>
			
				<rect x="263.551" y="142.392" transform="matrix(0.636 -0.7717 0.7717 0.636 -13.8914 258.2709)" style="fill:#FFFFFF;" width="6.546" height="2.937"/>
		</g>
		<g>
			
				<rect x="169.63" y="247.042" transform="matrix(0.6985 -0.7156 0.7156 0.6985 -125.706 198.6532)" style="fill:#FFFFFF;" width="6.546" height="2.938"/>
			
				<rect x="267.957" y="146.347" transform="matrix(0.6987 -0.7154 0.7154 0.6987 -24.0338 238.5588)" style="fill:#FFFFFF;" width="6.546" height="2.937"/>
		</g>
		<g>
			
				<rect x="165.572" y="242.731" transform="matrix(0.7562 -0.6543 0.6543 0.7562 -118.6249 170.0152)" style="fill:#FFFFFF;" width="6.545" height="2.938"/>
			
				<rect x="272.015" y="150.657" transform="matrix(0.7561 -0.6545 0.6545 0.7561 -32.4131 217.2862)" style="fill:#FFFFFF;" width="6.546" height="2.938"/>
		</g>
		<g>
			
				<rect x="161.891" y="238.094" transform="matrix(0.8086 -0.5884 0.5884 0.8086 -109.3375 143.0294)" style="fill:#FFFFFF;" width="6.546" height="2.938"/>
			
				<rect x="275.697" y="155.294" transform="matrix(0.8085 -0.5885 0.5885 0.8085 -38.8301 194.207)" style="fill:#FFFFFF;" width="6.546" height="2.938"/>
		</g>
		<g>
			
				<rect x="158.612" y="233.165" transform="matrix(0.8554 -0.518 0.518 0.8554 -98.1341 117.8014)" style="fill:#FFFFFF;" width="6.546" height="2.937"/>
			
				<rect x="278.975" y="160.224" transform="matrix(0.855 -0.5186 0.5186 0.855 -42.9332 169.8037)" style="fill:#FFFFFF;" width="6.546" height="2.938"/>
		</g>
	</g>
	<g>
		<g>
			
				<rect x="216.597" y="283.73" transform="matrix(0.0162 -0.9999 0.9999 0.0162 -68.4293 501.5624)" style="fill:#FFFFFF;" width="8.13" height="3.648"/>
		</g>
		<g>
			
				<rect x="296.446" y="157.794" transform="matrix(0.8974 -0.4413 0.4413 0.8974 -39.5944 148.9809)" style="fill:#FFFFFF;" width="8.13" height="3.649"/>
		</g>
		<g>
			
				<rect x="299.342" y="164.355" transform="matrix(0.9306 -0.366 0.366 0.9306 -39.7718 122.5938)" style="fill:#FFFFFF;" width="8.13" height="3.649"/>
		</g>
		<g>
			
				<rect x="301.541" y="170.639" transform="matrix(0.9558 -0.294 0.294 0.9558 -37.1985 97.4726)" style="fill:#FFFFFF;" width="8.131" height="3.649"/>
		</g>
		<g>
			
				<rect x="303.255" y="177.071" transform="matrix(0.9754 -0.2204 0.2204 0.9754 -31.8747 72.1424)" style="fill:#FFFFFF;" width="8.129" height="3.649"/>
		</g>
		<g>
			
				<rect x="304.473" y="183.616" transform="matrix(0.9893 -0.1456 0.1456 0.9893 -23.7191 46.916)" style="fill:#FFFFFF;" width="8.131" height="3.648"/>
		</g>
		<g>
			
				<rect x="305.191" y="190.234" transform="matrix(0.9976 -0.0699 0.0699 0.9976 -12.6636 22.0776)" style="fill:#FFFFFF;" width="8.13" height="3.649"/>
		</g>
		<g>
			
				<rect x="307.644" y="194.647" transform="matrix(0.0062 -1 1 0.0062 108.8513 506.9484)" style="fill:#FFFFFF;" width="3.649" height="8.13"/>
		</g>
		<g>
			
				<rect x="307.349" y="201.297" transform="matrix(0.0823 -0.9966 0.9966 0.0823 79.0573 496.581)" style="fill:#FFFFFF;" width="3.649" height="8.131"/>
		</g>
		<g>
			
				<rect x="306.547" y="207.906" transform="matrix(0.158 -0.9874 0.9874 0.158 50.3282 482.9662)" style="fill:#FFFFFF;" width="3.649" height="8.13"/>
		</g>
		<g>
			
				<rect x="305.247" y="214.435" transform="matrix(0.2327 -0.9725 0.9725 0.2327 23.1087 466.2903)" style="fill:#FFFFFF;" width="3.649" height="8.13"/>
		</g>
		<g>
			
				<rect x="303.453" y="220.845" transform="matrix(0.3056 -0.9522 0.9522 0.3056 -2.1734 446.8403)" style="fill:#FFFFFF;" width="3.648" height="8.13"/>
		</g>
		<g>
			
				<rect x="301.175" y="227.1" transform="matrix(0.3775 -0.926 0.926 0.3775 -25.452 424.4686)" style="fill:#FFFFFF;" width="3.649" height="8.132"/>
		</g>
		<g>
			
				<rect x="298.429" y="233.165" transform="matrix(0.4467 -0.8947 0.8947 0.4467 -46.1214 399.8786)" style="fill:#FFFFFF;" width="3.648" height="8.13"/>
		</g>
		<g>
			
				<rect x="295.228" y="239.002" transform="matrix(0.5137 -0.858 0.858 0.5137 -64.0888 373.0634)" style="fill:#FFFFFF;" width="3.649" height="8.131"/>
		</g>
		<g>
			
				<rect x="291.593" y="244.579" transform="matrix(0.5776 -0.8163 0.8163 0.5776 -79.0307 344.5609)" style="fill:#FFFFFF;" width="3.649" height="8.13"/>
		</g>
		<g>
			
				<rect x="287.544" y="249.863" transform="matrix(0.638 -0.7701 0.7701 0.638 -90.78 314.7614)" style="fill:#FFFFFF;" width="3.649" height="8.13"/>
		</g>
		<g>
			
				<rect x="283.106" y="254.824" transform="matrix(0.6947 -0.7193 0.7193 0.6947 -99.2287 284.0005)" style="fill:#FFFFFF;" width="3.648" height="8.13"/>
		</g>
		<g>
			
				<rect x="278.301" y="259.432" transform="matrix(0.7476 -0.6642 0.6642 0.7476 -104.2986 252.5764)" style="fill:#FFFFFF;" width="3.649" height="8.13"/>
		</g>
		<g>
			
				<rect x="273.16" y="263.661" transform="matrix(0.7958 -0.6055 0.6055 0.7958 -105.9689 221.1603)" style="fill:#FFFFFF;" width="3.648" height="8.13"/>
		</g>
		<g>
			
				<rect x="267.712" y="267.487" transform="matrix(0.8397 -0.543 0.543 0.8397 -104.257 189.8889)" style="fill:#FFFFFF;" width="3.649" height="8.13"/>
		</g>
		<g>
			
				<rect x="261.989" y="270.887" transform="matrix(0.8786 -0.4776 0.4776 0.8786 -99.2875 159.3929)" style="fill:#FFFFFF;" width="3.649" height="8.131"/>
		</g>
		<g>
			
				<rect x="256.024" y="273.842" transform="matrix(0.9123 -0.4095 0.4095 0.9123 -91.1866 129.9449)" style="fill:#FFFFFF;" width="3.648" height="8.13"/>
		</g>
		<g>
			
				<rect x="249.85" y="276.334" transform="matrix(0.9409 -0.3386 0.3386 0.9409 -80.0761 101.7787)" style="fill:#FFFFFF;" width="3.649" height="8.13"/>
		</g>
		<g>
			
				<rect x="243.506" y="278.349" transform="matrix(0.9639 -0.2662 0.2662 0.9639 -66.3211 75.4889)" style="fill:#FFFFFF;" width="3.649" height="8.13"/>
		</g>
		<g>
			
				<rect x="237.026" y="279.875" transform="matrix(0.9814 -0.1921 0.1921 0.9814 -50.0845 51.1567)" style="fill:#FFFFFF;" width="3.649" height="8.13"/>
		</g>
		<g>
			
				<rect x="230.992" y="280.838" transform="matrix(0.9924 -0.1231 0.1231 0.9924 -33.3026 30.8286)" style="fill:#FFFFFF;" width="3.649" height="8.13"/>
		</g>
		<g>
			
				<rect x="225.146" y="281.364" transform="matrix(0.9984 -0.0561 0.0561 0.9984 -15.6459 13.1743)" style="fill:#FFFFFF;" width="3.649" height="8.13"/>
		</g>
		<g>
			
				<rect x="210.695" y="283.436" transform="matrix(0.0836 -0.9965 0.9965 0.0836 -87.4642 475.4069)" style="fill:#FFFFFF;" width="8.131" height="3.649"/>
		</g>
		<g>
			
				<rect x="203.384" y="282.511" transform="matrix(0.1673 -0.9859 0.9859 0.1673 -107.5877 441.2854)" style="fill:#FFFFFF;" width="8.131" height="3.648"/>
		</g>
		<g>
			
				<rect x="273.592" y="128.893" transform="matrix(0.6359 -0.7718 0.7718 0.6359 0.2115 261.8821)" style="fill:#FFFFFF;" width="8.13" height="3.648"/>
		</g>
		<g>
			
				<rect x="279.065" y="133.804" transform="matrix(0.6984 -0.7157 0.7157 0.6984 -11.6731 243.5585)" style="fill:#FFFFFF;" width="8.13" height="3.649"/>
		</g>
		<g>
			
				<rect x="284.105" y="139.159" transform="matrix(0.7561 -0.6544 0.6544 0.7561 -21.9871 222.9631)" style="fill:#FFFFFF;" width="8.13" height="3.649"/>
		</g>
		<g>
			
				<rect x="288.678" y="144.918" transform="matrix(0.8085 -0.5886 0.5886 0.8085 -30.2928 200.4048)" style="fill:#FFFFFF;" width="8.13" height="3.649"/>
		</g>
		<g>
			
				<rect x="292.75" y="151.041" transform="matrix(0.8552 -0.5184 0.5184 0.8552 -36.2495 175.9958)" style="fill:#FFFFFF;" width="8.131" height="3.648"/>
		</g>
	</g>
</g>
<g>
	<path style="fill:#D1D3D4;" d="M311.788,361.638c0,6.064-38.319,10.979-85.587,10.979c-47.268,0-85.587-4.915-85.587-10.979
		c0-6.065,38.319-10.98,85.587-10.98C273.469,350.657,311.788,355.573,311.788,361.638z"/>
	<g>
		<g>
			<rect x="151.187" y="153.387" style="fill:#071938;" width="6.953" height="30.45"/>
			<rect x="151.187" y="190.55" style="fill:#071938;" width="6.953" height="15.225"/>
			<path style="fill:#071938;" d="M297.761,356.911c0,2.614-2.114,4.727-4.729,4.727H159.545c-2.614,0-4.73-2.113-4.73-4.727
				V130.091c0-2.607,2.116-4.725,4.73-4.725h133.486c2.615,0,4.729,2.117,4.729,4.725V356.911z"/>
			<rect x="154.814" y="138.662" style="fill:#00B2D6;" width="142.947" height="209.687"/>
			<g>
				<g>
					<path style="fill:#FFFFFF;" d="M239.062,132.898c0,0.857-0.693,1.553-1.55,1.553h-22.447c-0.859,0-1.552-0.696-1.552-1.553l0,0
						c0-0.854,0.693-1.555,1.552-1.555h22.447C238.369,131.343,239.062,132.044,239.062,132.898L239.062,132.898z"/>
					<path style="fill:#FFFFFF;" d="M234.007,354.478c0,0.95-0.771,1.719-1.73,1.719h-11.982c-0.953,0-1.725-0.769-1.725-1.719l0,0
						c0-0.954,0.772-1.725,1.725-1.725h11.982C233.235,352.753,234.007,353.524,234.007,354.478L234.007,354.478z"/>
				</g>
			</g>
			<g>
				<path style="fill:#314265;" d="M253.251,303.925c0,1.128-0.915,2.042-2.042,2.042h-53.601c-1.128,0-2.043-0.914-2.043-2.042
					v-20.93c0-1.128,0.914-2.041,2.043-2.041h53.601c1.128,0,2.042,0.913,2.042,2.041V303.925z"/>
				<g>
					<g>
						<path style="fill:#FFFFFF;" d="M209.521,290.7c-0.246,0-0.429-0.07-0.552-0.21c-0.123-0.139-0.184-0.319-0.184-0.539v-3.399
							c0-0.228-0.061-0.413-0.184-0.552c-0.123-0.139-0.307-0.209-0.552-0.209c-0.253,0-0.44,0.07-0.558,0.209
							c-0.119,0.14-0.178,0.324-0.178,0.552c0,0.77,0.044,1.463,0.133,2.08c0.089,0.618,0.21,1.189,0.362,1.713
							c0.152,0.524,0.323,1.019,0.514,1.484c0.19,0.465,0.382,0.928,0.577,1.389c0.194,0.461,0.387,0.933,0.577,1.415
							c0.19,0.482,0.361,1.006,0.514,1.573c0.152,0.566,0.273,1.188,0.362,1.865c0.089,0.677,0.133,1.438,0.133,2.283
							c0,0.338-0.057,0.641-0.171,0.907c-0.114,0.266-0.279,0.495-0.495,0.685c-0.216,0.19-0.474,0.336-0.774,0.438
							c-0.3,0.102-0.632,0.152-0.996,0.152c-0.77,0-1.368-0.195-1.795-0.584c-0.427-0.389-0.641-0.922-0.641-1.599v-3.882
							c0-0.076,0.021-0.14,0.064-0.19c0.042-0.051,0.105-0.076,0.19-0.076h0.71c0.245,0,0.429,0.069,0.552,0.209
							c0.123,0.14,0.184,0.319,0.184,0.539v3.4c0,0.229,0.062,0.412,0.184,0.552c0.122,0.14,0.307,0.209,0.552,0.209
							c0.254,0,0.44-0.07,0.558-0.209c0.119-0.14,0.178-0.323,0.178-0.552c0-1.082-0.078-2.03-0.235-2.841
							c-0.156-0.812-0.353-1.55-0.59-2.214c-0.237-0.664-0.49-1.294-0.761-1.89c-0.271-0.596-0.525-1.224-0.761-1.884
							c-0.237-0.66-0.434-1.387-0.59-2.182c-0.157-0.795-0.235-1.725-0.235-2.79c0-0.338,0.057-0.641,0.171-0.907
							c0.114-0.267,0.279-0.495,0.495-0.685c0.216-0.19,0.471-0.336,0.768-0.438c0.296-0.102,0.63-0.152,1.002-0.152
							c0.77,0,1.368,0.195,1.795,0.583c0.427,0.389,0.641,0.922,0.641,1.599v3.882c0,0.076-0.021,0.139-0.063,0.19
							c-0.042,0.051-0.106,0.076-0.19,0.076H209.521z"/>
						<path style="fill:#FFFFFF;" d="M219.999,295.317c0-0.22,0.059-0.399,0.178-0.539c0.118-0.14,0.296-0.213,0.533-0.222h0.736
							c0.085,0,0.148,0.025,0.191,0.076c0.042,0.051,0.063,0.114,0.063,0.19v5.531c0,0.677-0.213,1.209-0.641,1.599
							c-0.427,0.389-1.025,0.584-1.795,0.584c-0.372,0-0.706-0.051-1.002-0.152c-0.296-0.102-0.552-0.248-0.768-0.438
							c-0.216-0.19-0.38-0.419-0.495-0.685c-0.114-0.267-0.171-0.569-0.171-0.907v-13.802c0-0.677,0.213-1.21,0.641-1.599
							c0.427-0.389,1.025-0.583,1.795-0.583c0.364,0,0.696,0.051,0.996,0.152c0.3,0.102,0.558,0.247,0.774,0.438
							c0.215,0.19,0.38,0.418,0.495,0.685c0.114,0.267,0.171,0.569,0.171,0.907v5.683c0,0.076-0.021,0.14-0.063,0.19
							c-0.042,0.051-0.106,0.076-0.191,0.076h-0.71c-0.246,0-0.429-0.07-0.552-0.209c-0.122-0.14-0.184-0.319-0.184-0.539v-5.201
							c0-0.228-0.059-0.413-0.178-0.552c-0.118-0.139-0.304-0.209-0.558-0.209c-0.245,0-0.429,0.07-0.552,0.209
							c-0.123,0.14-0.184,0.324-0.184,0.552v13.802c0,0.229,0.059,0.412,0.178,0.552c0.118,0.14,0.305,0.209,0.558,0.209
							c0.245,0,0.429-0.07,0.552-0.209c0.122-0.14,0.184-0.323,0.184-0.552V295.317z"/>
						<path style="fill:#FFFFFF;" d="M230.946,284.573c0.076,0,0.135,0.025,0.177,0.076c0.042,0.05,0.068,0.11,0.076,0.177
							l1.522,17.189c0.008,0.076-0.015,0.148-0.07,0.216c-0.055,0.068-0.142,0.102-0.26,0.102h-0.622
							c-0.211,0-0.387-0.061-0.526-0.184c-0.14-0.123-0.218-0.273-0.235-0.45l-0.139-2.423h-1.281l-0.14,2.423
							c-0.017,0.178-0.095,0.328-0.235,0.45c-0.14,0.123-0.315,0.184-0.526,0.184h-0.622c-0.119,0-0.205-0.034-0.26-0.102
							c-0.055-0.067-0.078-0.14-0.069-0.216l1.522-17.189c0.008-0.067,0.034-0.127,0.076-0.177c0.042-0.051,0.102-0.076,0.178-0.076
							H230.946z M229.665,297.854h1.116l-0.558-9.489L229.665,297.854z"/>
						<path style="fill:#FFFFFF;" d="M243.378,284.573c0.085,0,0.148,0.025,0.191,0.076c0.042,0.05,0.063,0.114,0.063,0.19v17.227
							c0,0.076-0.021,0.14-0.063,0.19c-0.043,0.051-0.106,0.076-0.191,0.076h-0.71c-0.22,0-0.389-0.053-0.507-0.159
							c-0.119-0.105-0.191-0.247-0.216-0.425c0-0.102-0.032-0.338-0.095-0.71c-0.063-0.372-0.144-0.822-0.241-1.351
							c-0.098-0.528-0.206-1.11-0.324-1.744c-0.119-0.634-0.237-1.271-0.355-1.909c-0.119-0.639-0.23-1.249-0.336-1.833
							c-0.106-0.583-0.192-1.087-0.26-1.51l0.126,8.892c0.008,0.22-0.051,0.4-0.177,0.539c-0.127,0.14-0.313,0.21-0.558,0.21h-0.71
							c-0.085,0-0.149-0.025-0.191-0.076c-0.042-0.051-0.063-0.114-0.063-0.19v-17.227c0-0.076,0.021-0.14,0.063-0.19
							c0.042-0.051,0.105-0.076,0.191-0.076h0.71c0.211,0,0.382,0.057,0.514,0.171c0.131,0.114,0.205,0.265,0.222,0.451
							c0.017,0.135,0.055,0.412,0.114,0.831c0.059,0.419,0.135,0.918,0.229,1.497c0.093,0.58,0.194,1.21,0.304,1.89
							c0.11,0.681,0.222,1.349,0.337,2.004c0.114,0.655,0.224,1.267,0.33,1.833c0.106,0.567,0.201,1.032,0.286,1.395l-0.127-9.425
							c0-0.195,0.068-0.351,0.203-0.47c0.135-0.118,0.313-0.177,0.533-0.177H243.378z"/>
					</g>
				</g>
			</g>
			<g>
				<g>
					<path style="fill:#EA507E;" d="M206.668,269.105h44.268c0.554-2.874,1.225-9.503,2.013-11.774
						c7.368-21.241,1.865-27.356,1.865-27.356c-5.082-3.411-19.14-9.224-19.14-9.224h-16.354c0,0-10.015,6.53-15.505,8.971
						c0,0-5.836,8.114,1.063,27.063C205.765,259.22,206.178,265.938,206.668,269.105z"/>
					<path style="fill:#E78779;" d="M235.674,220.75c0,0-2.668,5.742-8.032,5.742c-5.731,0-8.323-5.742-8.323-5.742v-13.688h16.354
						V220.75z"/>
					<path style="fill:#F69583;" d="M244.779,197.63c-1.409,6.09-9.936,17.612-17.622,17.612c-6.602,0-17.225-9.584-17.687-15.906
						c0,0-1.647-11.289-1.88-15.084c-0.699-11.229,9.804-20.365,19.567-20.365l0,0c9.772,0,20.648,9.142,19.848,20.365
						C246.737,188.054,245.637,193.92,244.779,197.63z"/>
					<path style="fill:#EA507E;" d="M253.503,269.105h14.245c-1.015-11.297-1.715-19.958-2.486-23.366
						c-3.043-13.456-12.685-17.115-12.685-17.115S253.327,266.376,253.503,269.105z"/>
					<path style="fill:#EA507E;" d="M205.225,269.105c0.126-2.524-0.597-39.776-0.597-39.776s-11.227,4.568-14.27,18.024
						c-0.725,3.206-2.933,11.623-2.549,21.751H205.225z"/>
					<g>
						<g>
							<g>
								<path style="fill:#071938;" d="M227.57,201.495c-0.084,0-0.178-0.006-0.262-0.011c-0.15-0.018-0.27-0.149-0.251-0.3
									c0.013-0.151,0.133-0.279,0.303-0.255c0.558,0.055,0.981-0.107,1.025-0.229c0.025-0.054-0.032-0.244-0.492-0.558
									c-1.389-0.945-1.549-4.233-1.558-4.368c-0.004-0.153,0.113-0.282,0.27-0.291c0.157-0.006,0.278,0.113,0.283,0.262
									c0.04,0.874,0.351,3.286,1.311,3.94c0.614,0.407,0.848,0.814,0.711,1.199C228.754,201.319,228.16,201.495,227.57,201.495z"
									/>
							</g>
						</g>
						<g>
							<g>
								<g>
									<path style="fill:#071938;" d="M218.346,193.597c-0.415,0-0.79,0.167-1.058,0.468c-0.221,0.269-0.335,0.606-0.335,0.971
										c0,0.72,0.482,1.455,1.393,1.455c0.435,0,0.81-0.17,1.071-0.475c0.228-0.261,0.348-0.603,0.348-0.98
										C219.765,194.323,219.283,193.597,218.346,193.597z"/>
								</g>
							</g>
						</g>
						<g>
							<g>
								<g>
									<path style="fill:#071938;" d="M235.762,193.597c0.415,0,0.79,0.167,1.059,0.468c0.22,0.269,0.334,0.606,0.334,0.971
										c0,0.72-0.482,1.455-1.393,1.455c-0.434,0-0.809-0.17-1.07-0.475c-0.228-0.261-0.349-0.603-0.349-0.98
										C234.344,194.323,234.826,193.597,235.762,193.597z"/>
								</g>
							</g>
						</g>
						<g>
							
								<path style="fill:none;stroke:#071938;stroke-width:0.7836;stroke-linecap:round;stroke-linejoin:round;stroke-miterlimit:10;" d="
								M239.088,189.957c0,0-1.56-1.936-5.04-0.76"/>
							
								<path style="fill:none;stroke:#071938;stroke-width:0.7836;stroke-linecap:round;stroke-linejoin:round;stroke-miterlimit:10;" d="
								M215.405,189.957c0,0,1.56-1.936,5.04-0.76"/>
						</g>
						<g>
							<path style="fill:#F37784;" d="M221.911,201.26c0,1.237-1.529,2.237-3.423,2.237c-1.89,0-3.419-1-3.419-2.237
								c0-1.234,1.53-2.233,3.419-2.233C220.382,199.026,221.911,200.025,221.911,201.26z"/>
							<path style="fill:#F37784;" d="M239.04,201.731c0,1.233-1.532,2.232-3.422,2.232c-1.89,0-3.42-0.999-3.42-2.232
								c0-1.239,1.53-2.239,3.42-2.239C237.508,199.493,239.04,200.492,239.04,201.731z"/>
						</g>
						<path style="fill:#FFFFFF;" d="M222.695,205.576c0.078,2.425,2.26,4.376,4.948,4.376c2.689,0,4.872-1.952,4.946-4.376H222.695
							z"/>
					</g>
					<path style="fill:#071938;" d="M235.961,161.487c0,4.505-4.156,8.164-9.283,8.164c-5.128,0-9.284-3.659-9.284-8.164
						c0-4.51,4.156-8.161,9.284-8.161C231.805,153.327,235.961,156.977,235.961,161.487z"/>
					<path style="fill:#F495BF;" d="M218.599,165.506c0,0,7.354-7.249,16.322,0C234.921,165.506,228.402,168.186,218.599,165.506z"
						/>
					<path style="fill:#071938;" d="M239.862,168.106c-7.124-5.231-19.562-6.121-26.736,1.013
						c-9.896,9.841-4.045,27.476-4.045,27.476s1.438,1.001,2.377-5.428c0.551-3.809,0.784-9.025,5.496-8.325
						c5.021,0.746,10.019-3.151,10.019-3.151s4.869,3.974,9.886,3.215c3.788-0.573,5.32,5.368,5.877,9.175
						c0.94,6.429,2.38,4.148,2.38,4.148S252.856,177.65,239.862,168.106z"/>
				</g>
				<g>
					<g>
						
							<path style="fill:none;stroke:#FFFFFF;stroke-width:1.0981;stroke-linecap:round;stroke-linejoin:round;stroke-miterlimit:10;" d="
							M259.474,205.331c0,8.794,0,15.242,0,15.242s-6.053,0-14.43,0"/>
						
							<path style="fill:none;stroke:#FFFFFF;stroke-width:1.0981;stroke-linecap:round;stroke-linejoin:round;stroke-miterlimit:10;" d="
							M195.711,172.205c0-8.872,0-15.395,0-15.395s7.957,0,18.251,0"/>
						
							<path style="fill:none;stroke:#FFFFFF;stroke-width:1.0981;stroke-linecap:round;stroke-linejoin:round;stroke-miterlimit:10;" d="
							M244.232,156.811c8.794,0,15.242,0,15.242,0s0,6.053,0,14.429"/>
						
							<path style="fill:none;stroke:#FFFFFF;stroke-width:1.0981;stroke-linecap:round;stroke-linejoin:round;stroke-miterlimit:10;" d="
							M211.105,220.573c-8.872,0-15.394,0-15.394,0s0-7.958,0-18.25"/>
					</g>
					<g>
						
							<path style="fill:none;stroke:#FFFFFF;stroke-width:0.9132;stroke-linecap:round;stroke-linejoin:round;stroke-miterlimit:10;" d="
							M254.107,202.529c0,7.314,0,12.677,0,12.677s-5.035,0-12.001,0"/>
						
							<path style="fill:none;stroke:#FFFFFF;stroke-width:0.9132;stroke-linecap:round;stroke-linejoin:round;stroke-miterlimit:10;" d="
							M201.078,174.98c0-7.379,0-12.802,0-12.802s6.619,0,15.179,0"/>
						
							<path style="fill:none;stroke:#FFFFFF;stroke-width:0.9132;stroke-linecap:round;stroke-linejoin:round;stroke-miterlimit:10;" d="
							M241.43,162.177c7.314,0,12.677,0,12.677,0s0,5.034,0,12.001"/>
						
							<path style="fill:none;stroke:#FFFFFF;stroke-width:0.9132;stroke-linecap:round;stroke-linejoin:round;stroke-miterlimit:10;" d="
							M213.88,215.206c-7.378,0-12.803,0-12.803,0s0-6.619,0-15.179"/>
					</g>
				</g>
				<path style="fill:#FFFFFF;" d="M245.336,182.645c0,0.77-0.625,1.395-1.395,1.395c-0.771,0-1.395-0.625-1.395-1.395
					c0-0.771,0.624-1.395,1.395-1.395C244.711,181.25,245.336,181.874,245.336,182.645z"/>
				<path style="fill:#FFFFFF;" d="M245.657,196.65c0,0.771-0.624,1.395-1.395,1.395c-0.77,0-1.394-0.624-1.394-1.395
					c0-0.77,0.624-1.394,1.394-1.394C245.033,195.256,245.657,195.88,245.657,196.65z"/>
				<g>
					<path style="fill:#FFFFFF;" d="M212.698,183.557c0,0.77-0.625,1.394-1.394,1.394c-0.77,0-1.395-0.624-1.395-1.394
						c0-0.77,0.625-1.395,1.395-1.395C212.074,182.163,212.698,182.787,212.698,183.557z"/>
					<path style="fill:#FFFFFF;" d="M228.627,187.641c0,0.771-0.625,1.395-1.394,1.395c-0.77,0-1.395-0.624-1.395-1.395
						c0-0.77,0.624-1.394,1.395-1.394C228.002,186.247,228.627,186.871,228.627,187.641z"/>
					<path style="fill:#FFFFFF;" d="M210.246,195.785c0,0.77-0.624,1.394-1.394,1.394c-0.771,0-1.395-0.625-1.395-1.394
						c0-0.771,0.624-1.395,1.395-1.395C209.622,194.39,210.246,195.014,210.246,195.785z"/>
					<path style="fill:#FFFFFF;" d="M229.546,214.622c0,0.771-0.624,1.395-1.394,1.395c-0.771,0-1.395-0.624-1.395-1.395
						c0-0.77,0.624-1.395,1.395-1.395C228.922,213.227,229.546,213.852,229.546,214.622z"/>
					<path style="fill:#FFFFFF;" d="M228.99,200.643c0,0.77-0.625,1.395-1.395,1.395s-1.395-0.624-1.395-1.395
						c0-0.77,0.625-1.394,1.395-1.394S228.99,199.873,228.99,200.643z"/>
					<path style="fill:#FFFFFF;" d="M216.059,207.617c0,0.77-0.625,1.394-1.395,1.394c-0.77,0-1.395-0.624-1.395-1.394
						c0-0.77,0.624-1.395,1.395-1.395C215.434,206.223,216.059,206.847,216.059,207.617z"/>
					<path style="fill:#FFFFFF;" d="M240.435,208.438c0,0.77-0.624,1.394-1.395,1.394c-0.77,0-1.394-0.624-1.394-1.394
						c0-0.771,0.624-1.395,1.394-1.395C239.811,207.044,240.435,207.668,240.435,208.438z"/>
					<polygon style="fill:none;stroke:#FFFFFF;stroke-width:0.3277;stroke-miterlimit:10;" points="214.664,207.617 
						228.152,214.622 239.04,208.438 244.263,196.65 243.941,182.645 211.414,182.645 208.852,195.785 					"/>
					<polyline style="fill:none;stroke:#FFFFFF;stroke-width:0.3277;stroke-miterlimit:10;" points="214.664,207.617 
						227.316,201.261 239.04,208.438 					"/>
					<polyline style="fill:none;stroke:#FFFFFF;stroke-width:0.3277;stroke-miterlimit:10;" points="227.316,199.755 
						227.233,187.641 243.941,182.645 					"/>
					<polyline style="fill:none;stroke:#FFFFFF;stroke-width:0.3277;stroke-miterlimit:10;" points="244.019,195.999 
						227.233,187.27 209.454,195.484 227.596,200.643 243.941,196.65 					"/>
					<polyline style="fill:none;stroke:#FFFFFF;stroke-width:0.3277;stroke-miterlimit:10;" points="215.143,207.063 
						227.233,187.641 210.828,183.749 					"/>
					
						<line style="fill:none;stroke:#FFFFFF;stroke-width:0.3277;stroke-miterlimit:10;" x1="238.924" y1="207.789" x2="227.233" y2="187.641"/>
					
						<line style="fill:none;stroke:#FFFFFF;stroke-width:0.3277;stroke-miterlimit:10;" x1="228.152" y1="214.622" x2="227.596" y2="200.643"/>
				</g>
			</g>
			<g style="opacity:0.3;">
				<polygon style="fill:#ABDFF9;" points="297.634,138.662 285.396,138.662 188.07,348.349 217.656,348.349 297.634,170.057 				
					"/>
				<path style="fill:#ABDFF9;" d="M277.378,138.662h-25.567c0,0-96.882,198.949-97.047,198.95v10.737h23.907L277.378,138.662z"/>
			</g>
		</g>
		<g>
			<g>
				<g>
					<g>
						
							<line style="fill:none;stroke:#FFFFFF;stroke-width:1.205;stroke-linecap:round;stroke-linejoin:round;" x1="320.066" y1="102.83" x2="318.861" y2="102.83"/>
						
							<line style="fill:none;stroke:#FFFFFF;stroke-width:1.205;stroke-linecap:round;stroke-linejoin:round;stroke-dasharray:2.4902,3.3202;" x1="315.541" y1="102.83" x2="282.339" y2="102.83"/>
						<polyline style="fill:none;stroke:#FFFFFF;stroke-width:1.205;stroke-linecap:round;stroke-linejoin:round;" points="
							280.679,102.83 279.474,102.83 278.718,103.77 						"/>
						
							<line style="fill:none;stroke:#FFFFFF;stroke-width:1.205;stroke-linecap:round;stroke-linejoin:round;stroke-dasharray:2.7459,3.6612;" x1="276.423" y1="106.622" x2="273.555" y2="110.188"/>
						
							<line style="fill:none;stroke:#FFFFFF;stroke-width:1.205;stroke-linecap:round;stroke-linejoin:round;" x1="272.408" y1="111.615" x2="271.652" y2="112.554"/>
					</g>
				</g>
				<path style="fill:#FFFFFF;" d="M323.053,102.83c0,1.414-1.143,2.561-2.56,2.561c-1.413,0-2.561-1.147-2.561-2.561
					c0-1.414,1.147-2.561,2.561-2.561C321.91,100.27,323.053,101.417,323.053,102.83z"/>
				<path style="fill:#FFFFFF;" d="M274.213,112.555c0,1.414-1.146,2.56-2.56,2.56c-1.415,0-2.563-1.146-2.563-2.56
					c0-1.415,1.148-2.563,2.563-2.563C273.067,109.992,274.213,111.14,274.213,112.555z"/>
			</g>
			<g>
				<rect x="328.809" y="80.076" style="fill:#FFFFFF;" width="65.942" height="42.974"/>
				<g>
					<g>
						<path style="fill:#82B1DF;" d="M342.994,92.376c0,0.167-5.964-5.424-5.964-5.424c1.477-1.619,3.601-2.636,5.964-2.636V92.376z
							"/>
						<path style="fill:#F99B2D;" d="M351.053,92.376c0,0-3.606,0-8.059,0v-8.061C347.446,84.315,351.053,87.926,351.053,92.376z"/>
						<path style="fill:#128C96;" d="M334.933,92.384c0,0,3.61,0,8.061,0v8.061C338.544,100.445,334.933,96.835,334.933,92.384z"/>
						<path style="fill:#071938;" d="M342.994,92.376h-8.061c0-2.088,0.795-3.992,2.097-5.424L342.994,92.376z"/>
						<g>
							<path style="fill:#F495BF;" d="M342.994,92.386c0-0.167,5.962,5.423,5.962,5.423c-1.475,1.621-3.599,2.638-5.962,2.638
								V92.386z"/>
							<path style="fill:#EA507E;" d="M342.994,92.386h8.059c0,2.089-0.793,3.992-2.097,5.423L342.994,92.386z"/>
						</g>
					</g>
					<g>
						<path style="fill:#82B1DF;" d="M342.996,110.741c0,0.167-5.964-5.425-5.964-5.425c1.477-1.619,3.601-2.636,5.964-2.636
							V110.741z"/>
						<path style="fill:#F99B2D;" d="M351.055,110.741c0,0-3.608,0-8.059,0v-8.061C347.446,102.68,351.055,106.289,351.055,110.741z
							"/>
						<path style="fill:#128C96;" d="M334.935,110.748c0,0,3.61,0,8.061,0v8.061C338.545,118.809,334.935,115.2,334.935,110.748z"/>
						<path style="fill:#071938;" d="M342.996,110.741h-8.061c0-2.089,0.795-3.993,2.097-5.425L342.996,110.741z"/>
						<g>
							<path style="fill:#F495BF;" d="M342.996,110.749c0-0.166,5.96,5.423,5.96,5.423c-1.473,1.621-3.599,2.638-5.96,2.638V110.749
								z"/>
							<path style="fill:#EA507E;" d="M342.996,110.749h8.059c0,2.089-0.795,3.992-2.099,5.423L342.996,110.749z"/>
						</g>
					</g>
					<g>
						<rect x="356.1" y="86.562" style="fill:#071938;" width="32.526" height="1.627"/>
						<rect x="356.1" y="91.567" style="fill:#071938;" width="32.526" height="1.627"/>
						<rect x="356.1" y="96.573" style="fill:#071938;" width="32.526" height="1.627"/>
					</g>
					<g>
						<rect x="355.622" y="104.926" style="fill:#071938;" width="32.524" height="1.627"/>
						<rect x="355.622" y="109.931" style="fill:#071938;" width="32.524" height="1.628"/>
						<rect x="355.622" y="114.938" style="fill:#071938;" width="32.524" height="1.627"/>
					</g>
				</g>
			</g>
		</g>
		<g>
			<g>
				<g>
					<g>
						
							<line style="fill:none;stroke:#FFFFFF;stroke-width:1.119;stroke-linecap:round;stroke-linejoin:round;" x1="324.715" y1="279.193" x2="323.596" y2="279.193"/>
						
							<line style="fill:none;stroke:#FFFFFF;stroke-width:1.119;stroke-linecap:round;stroke-linejoin:round;stroke-dasharray:2.3124,3.0832;" x1="320.513" y1="279.193" x2="289.68" y2="279.193"/>
						<polyline style="fill:none;stroke:#FFFFFF;stroke-width:1.119;stroke-linecap:round;stroke-linejoin:round;" points="
							288.139,279.193 287.02,279.193 286.318,278.321 						"/>
						
							<line style="fill:none;stroke:#FFFFFF;stroke-width:1.119;stroke-linecap:round;stroke-linejoin:round;stroke-dasharray:2.5501,3.4001;" x1="284.187" y1="275.672" x2="281.523" y2="272.36"/>
						
							<line style="fill:none;stroke:#FFFFFF;stroke-width:1.119;stroke-linecap:round;stroke-linejoin:round;" x1="280.457" y1="271.036" x2="279.756" y2="270.164"/>
					</g>
				</g>
				<path style="fill:#FFFFFF;" d="M327.487,279.193c0-1.313-1.062-2.377-2.377-2.377c-1.313,0-2.377,1.064-2.377,2.377
					c0,1.313,1.064,2.378,2.377,2.378C326.426,281.571,327.487,280.506,327.487,279.193z"/>
				<path style="fill:#FFFFFF;" d="M282.135,270.164c0-1.313-1.064-2.378-2.378-2.378c-1.315,0-2.379,1.065-2.379,2.378
					c0,1.313,1.064,2.378,2.379,2.378C281.071,272.542,282.135,271.476,282.135,270.164z"/>
			</g>
			<g>
				<rect x="331.921" y="246.923" style="fill:#FFFFFF;" width="74.908" height="58.806"/>
				<g>
					<rect x="339.94" y="285.814" style="fill:#071938;" width="58.87" height="1.848"/>
					<rect x="339.94" y="291.5" style="fill:#071938;" width="58.87" height="1.849"/>
					<rect x="339.94" y="297.186" style="fill:#071938;" width="58.87" height="1.849"/>
				</g>
				<g>
					<path style="fill:#82B1DF;" d="M398.086,265.924c0,0-12.854,13.067-28.711,13.067c-15.858,0-28.712-13.067-28.712-13.067
						s12.854-13.168,28.712-13.168C385.232,252.756,398.086,265.924,398.086,265.924z"/>
					<path style="fill:#6692CC;" d="M381.184,265.875c0,6.521-5.287,11.808-11.808,11.808c-6.524,0-11.81-5.287-11.81-11.808
						c0-6.522,5.286-11.811,11.81-11.811C375.898,254.064,381.184,259.353,381.184,265.875z"/>
					<path style="fill:#000013;" d="M375.3,265.875c0,3.272-2.651,5.925-5.924,5.925c-3.274,0-5.929-2.653-5.929-5.925
						c0-3.273,2.655-5.927,5.929-5.927C372.649,259.948,375.3,262.602,375.3,265.875z"/>
				</g>
			</g>
		</g>
		<g>
			<g>
				<g>
					<g>
						
							<line style="fill:none;stroke:#FFFFFF;stroke-width:1.2608;stroke-linecap:round;stroke-linejoin:round;" x1="134.331" y1="102.889" x2="135.591" y2="102.889"/>
						
							<line style="fill:none;stroke:#FFFFFF;stroke-width:1.2608;stroke-linecap:round;stroke-linejoin:round;stroke-dasharray:2.6054,3.4738;" x1="139.065" y1="102.889" x2="173.804" y2="102.889"/>
						<polyline style="fill:none;stroke:#FFFFFF;stroke-width:1.2608;stroke-linecap:round;stroke-linejoin:round;" points="
							175.541,102.889 176.801,102.889 177.591,103.871 						"/>
						
							<line style="fill:none;stroke:#FFFFFF;stroke-width:1.2608;stroke-linecap:round;stroke-linejoin:round;stroke-dasharray:2.8727,3.8303;" x1="179.992" y1="106.856" x2="182.993" y2="110.587"/>
						
							<line style="fill:none;stroke:#FFFFFF;stroke-width:1.2608;stroke-linecap:round;stroke-linejoin:round;" x1="184.193" y1="112.079" x2="184.983" y2="113.062"/>
					</g>
				</g>
				<circle style="fill:#FFFFFF;" cx="133.884" cy="102.889" r="2.679"/>
				<path style="fill:#FFFFFF;" d="M182.304,113.063c0,1.479,1.198,2.678,2.679,2.678c1.481,0,2.679-1.199,2.679-2.678
					c0-1.479-1.198-2.68-2.679-2.68C183.502,110.383,182.304,111.583,182.304,113.063z"/>
			</g>
			<g>
				<rect x="56.19" y="69.547" style="fill:#FFFFFF;" width="68.992" height="64.032"/>
				<g>
					<path style="fill:#82B1DF;" d="M102.401,115.511c0,0.214,7.592-6.904,7.592-6.904c-1.878-2.062-4.583-3.357-7.592-3.357
						V115.511z"/>
					<path style="fill:#F99B2D;" d="M92.14,115.511c0,0,4.595,0,10.261,0v-10.261C96.735,105.249,92.14,109.845,92.14,115.511z"/>
					<path style="fill:#128C96;" d="M112.665,115.521c0,0-4.595,0-10.264,0v10.261C108.07,125.783,112.665,121.188,112.665,115.521z
						"/>
					<path style="fill:#071938;" d="M102.401,115.511h10.264c0-2.658-1.012-5.082-2.672-6.904L102.401,115.511z"/>
					<g>
						<path style="fill:#F495BF;" d="M102.401,115.524c0-0.212-7.591,6.904-7.591,6.904c1.877,2.063,4.582,3.357,7.591,3.357
							V115.524z"/>
						<path style="fill:#EA507E;" d="M102.401,115.524H92.14c0,2.659,1.01,5.081,2.67,6.904L102.401,115.524z"/>
					</g>
				</g>
				<g>
					<rect x="87.885" y="86.01" style="fill:#071938;" width="29.035" height="1.702"/>
					<rect x="87.885" y="80.514" style="fill:#071938;" width="29.035" height="1.702"/>
					<rect x="87.885" y="91.506" style="fill:#071938;" width="29.035" height="1.703"/>
					<rect x="87.885" y="97.002" style="fill:#071938;" width="29.035" height="1.702"/>
				</g>
				<g>
					<path style="fill:#EA507E;" d="M79.021,86.084c-0.788-0.528-2.964-1.428-2.964-1.428h-2.532c0,0-1.551,1.011-2.401,1.389
						c0,0-0.942,1.848,0.126,4.782c0.916,2.517,0.302,8.222,0.302,8.222h6.436c0,0-0.139-5.573,0.742-8.112
						C79.871,87.647,79.021,86.084,79.021,86.084z"/>
					<path style="fill:#E78779;" d="M76.057,84.656c0,0-0.413,0.889-1.244,0.889c-0.887,0-1.288-0.889-1.288-0.889v-2.119h2.532
						V84.656z"/>
					<path style="fill:#F69583;" d="M77.467,81.077c-0.218,0.943-1.539,2.727-2.729,2.727c-1.022,0-2.666-1.484-2.739-2.463
						c0,0-0.255-1.748-0.291-2.336c-0.108-1.738,1.518-3.153,3.03-3.153l0,0c1.513,0,3.197,1.416,3.073,3.153
						C77.771,79.594,77.6,80.502,77.467,81.077z"/>
					<g>
						<g>
							<path style="fill:#F69583;" d="M81.23,101.624c0,0,0.363,0.842,0.363,2.046c0,0.467-0.145,1.195-0.826,1.371
								c-0.07,0.018-0.26,0.002-0.293-0.061c-0.043-0.081-0.041-0.161,0.102-0.312c0.285-0.3,0.375-0.554,0.38-1.108
								c0.004-0.397-0.161-0.854-0.302-0.854c-0.136,0-0.373,0.464-0.448,0.556c-0.233,0.287-0.616,0.215-0.413-0.11
								c0.502-0.8,0.363-1.527,0.363-1.527H81.23z"/>
						</g>
						<path style="fill:#F69583;" d="M78.925,91.854c0.106,1.759,0.508,3.623,0.508,3.623l0.74,6.309h1.088
							c0,0-0.11-5.95-0.417-9.932H78.925z"/>
					</g>
					<g>
						<path style="fill:#F69583;" d="M68.572,101.715c0,0-0.184,0.843-0.184,2.047c0,0.467,0.145,1.195,0.825,1.37
							c0.071,0.019,0.26,0.002,0.294-0.061c0.042-0.08,0.041-0.161-0.103-0.311c-0.284-0.299-0.375-0.555-0.38-1.108
							c-0.004-0.398,0.161-0.855,0.302-0.855c0.135,0,0.373,0.463,0.448,0.556c0.232,0.287,0.616,0.215,0.412-0.111
							c-0.502-0.8-0.363-1.527-0.363-1.527H68.572z"/>
					</g>
					<path style="fill:#F69583;" d="M68.788,91.748c-0.188,3.941-0.247,10.129-0.247,10.129h1.267l0.739-6.309
						c0,0,0.457-2.105,0.589-3.82H68.788z"/>
					<path style="fill:#EA507E;" d="M78.659,92.248h2.374c-0.162-1.801-0.273-3.185-0.395-3.723c-0.471-2.083-1.964-2.65-1.964-2.65
						s0.069,2.077,0.056,5.061C78.729,91.338,78.605,91.789,78.659,92.248z"/>
					<path style="fill:#EA507E;" d="M71.335,92.248c0.049-0.428-0.083-0.846-0.084-1.221c-0.013-2.984,0-5.043,0-5.043
						s-1.739,0.707-2.21,2.79c-0.114,0.508-0.469,1.858-0.39,3.473H71.335z"/>
					<path style="fill:#F69583;" d="M73.529,126.144c0,0-0.245,0.477-0.327,0.605c-0.32,0.499-1.168,1.592-1.584,1.996
						c-0.309,0.299-1.254,0.589-1.609,0.325c-0.3-0.223-0.266-0.848,0.282-1.316c1.131-0.969,1.494-1.619,1.494-1.619
						L73.529,126.144z"/>
					<path style="fill:#F69583;" d="M76.125,126.144c0,0,0.246,0.477,0.327,0.605c0.32,0.499,1.168,1.592,1.584,1.996
						c0.308,0.299,1.254,0.589,1.61,0.325c0.299-0.223,0.266-0.848-0.283-1.316c-1.13-0.969-1.493-1.619-1.493-1.619L76.125,126.144
						z"/>
					<path style="fill:#F69583;" d="M77.986,98.987h-6.42c-1.52,3.638-1.21,11.819-0.882,16.045c0.123,1.588,0.84,6.384,1.042,9.124
						h-0.005c0.116,1.212,0.051,2.078,0.051,2.078s0.468,0.072,1.073,0.072c0.6,0,0.669-0.061,0.669-0.061l1.276-21.077
						l1.357,21.085c0,0,0.053,0.053,0.653,0.053c0.606,0,1.073-0.072,1.073-0.072s-0.06-0.808,0.04-1.956h-0.003
						c0.186-2.719,0.866-7.634,0.986-9.247C79.223,110.645,79.506,102.625,77.986,98.987z"/>
					<path style="fill:#071938;" d="M78.904,114.937c0.323-4.407,0.591-12.337-0.917-15.949h-6.42
						c-1.508,3.611-1.214,11.697-0.889,15.949H78.904z"/>
					<g>
						<g>
							<g>
								<path style="fill:#071938;" d="M74.803,81.675c-0.014,0-0.027-0.001-0.041-0.002c-0.022-0.002-0.041-0.023-0.038-0.046
									c0.002-0.023,0.021-0.043,0.047-0.039c0.086,0.008,0.151-0.017,0.159-0.036c0.003-0.008-0.005-0.038-0.077-0.086
									c-0.215-0.146-0.24-0.656-0.241-0.677c-0.001-0.023,0.018-0.043,0.041-0.045c0.025-0.001,0.044,0.018,0.045,0.041
									c0.006,0.135,0.055,0.509,0.203,0.61c0.094,0.063,0.131,0.126,0.11,0.186C74.986,81.648,74.894,81.675,74.803,81.675z"/>
							</g>
						</g>
						<g>
							<g>
								<g>
									<path style="fill:#071938;" d="M73.374,80.452c-0.064,0-0.122,0.025-0.163,0.072c-0.034,0.042-0.052,0.094-0.052,0.15
										c0,0.112,0.075,0.226,0.215,0.226c0.067,0,0.126-0.026,0.166-0.074c0.035-0.04,0.054-0.093,0.054-0.152
										C73.594,80.564,73.52,80.452,73.374,80.452z"/>
								</g>
							</g>
						</g>
						<g>
							<g>
								<g>
									<path style="fill:#071938;" d="M76.071,80.452c0.065,0,0.123,0.025,0.164,0.072c0.034,0.042,0.052,0.094,0.052,0.15
										c0,0.112-0.075,0.226-0.216,0.226c-0.067,0-0.125-0.026-0.165-0.074c-0.036-0.04-0.054-0.093-0.054-0.152
										C75.851,80.564,75.926,80.452,76.071,80.452z"/>
								</g>
							</g>
						</g>
						<g>
							
								<path style="fill:none;stroke:#071938;stroke-width:0.1213;stroke-linecap:round;stroke-linejoin:round;stroke-miterlimit:10;" d="
								M76.586,79.889c0,0-0.242-0.299-0.781-0.118"/>
							
								<path style="fill:none;stroke:#071938;stroke-width:0.1213;stroke-linecap:round;stroke-linejoin:round;stroke-miterlimit:10;" d="
								M72.919,79.889c0,0,0.241-0.299,0.781-0.118"/>
						</g>
						<g>
							<path style="fill:#F37784;" d="M73.926,81.639c0,0.192-0.236,0.346-0.53,0.346c-0.293,0-0.529-0.154-0.529-0.346
								c0-0.191,0.237-0.346,0.529-0.346C73.69,81.293,73.926,81.448,73.926,81.639z"/>
							<path style="fill:#F37784;" d="M76.579,81.712c0,0.191-0.237,0.345-0.53,0.345c-0.293,0-0.53-0.154-0.53-0.345
								c0-0.191,0.237-0.347,0.53-0.347C76.341,81.365,76.579,81.521,76.579,81.712z"/>
						</g>
						<path style="fill:#FFFFFF;" d="M74.047,82.307c0.012,0.376,0.35,0.677,0.766,0.677c0.416,0,0.755-0.302,0.766-0.677H74.047z"
							/>
					</g>
					<path style="fill:#EA507E;" d="M79.235,127.642c0,0,0.328,0.41,0.028,0.632c-0.262,0.195-0.892,0.293-1.338-0.189
						c-0.504-0.546-0.694-0.802-1.595-1.937c-0.084-0.106-0.188-0.251-0.216-0.418l0.011,0.413c0,0,0.013,0.362,0.302,0.777
						c0.339,0.486,0.985,1.306,1.373,1.736c0.362,0.4,1.246,0.688,1.649,0.517c0,0,0.141-0.062,0.196-0.104
						C80.107,128.721,79.811,128.127,79.235,127.642z"/>
					<path style="fill:#EA507E;" d="M70.419,127.642c0,0-0.329,0.41-0.028,0.632c0.262,0.195,0.892,0.293,1.338-0.189
						c0.505-0.546,0.694-0.802,1.594-1.937c0.084-0.106,0.196-0.301,0.225-0.468l-0.019,0.463c0,0-0.013,0.362-0.302,0.777
						c-0.339,0.486-0.984,1.306-1.374,1.736c-0.362,0.4-1.245,0.688-1.648,0.517c0,0-0.141-0.062-0.196-0.104
						C69.547,128.721,69.844,128.127,70.419,127.642z"/>
					<path style="fill:#071938;" d="M76.102,75.48c0,0.697-0.644,1.264-1.438,1.264c-0.794,0-1.438-0.567-1.438-1.264
						c0-0.698,0.644-1.264,1.438-1.264C75.459,74.217,76.102,74.782,76.102,75.48z"/>
					<path style="fill:#F495BF;" d="M73.414,76.103c0,0,1.139-1.123,2.527,0C75.941,76.103,74.932,76.518,73.414,76.103z"/>
					<path style="fill:#071938;" d="M76.706,76.505c-1.104-0.81-3.029-0.948-4.14,0.157c-1.532,1.524-0.626,4.254-0.626,4.254
						s0.223,0.155,0.368-0.84c0.086-0.59,0.121-1.398,0.851-1.29c0.778,0.116,1.551-0.488,1.551-0.488s0.753,0.615,1.531,0.498
						c0.586-0.089,0.824,0.831,0.91,1.42c0.145,0.996,0.368,0.643,0.368,0.643S78.718,77.983,76.706,76.505z"/>
				</g>
			</g>
		</g>
		<g>
			<g>
				<g>
					<g>
						
							<line style="fill:none;stroke:#FFFFFF;stroke-width:1.0649;stroke-linecap:round;stroke-linejoin:round;" x1="131.753" y1="279.056" x2="132.818" y2="279.056"/>
						
							<line style="fill:none;stroke:#FFFFFF;stroke-width:1.0649;stroke-linecap:round;stroke-linejoin:round;stroke-dasharray:2.2008,2.9344;" x1="135.753" y1="279.056" x2="165.097" y2="279.056"/>
						<polyline style="fill:none;stroke:#FFFFFF;stroke-width:1.0649;stroke-linecap:round;stroke-linejoin:round;" points="
							166.564,279.056 167.629,279.056 168.296,278.225 						"/>
						
							<line style="fill:none;stroke:#FFFFFF;stroke-width:1.0649;stroke-linecap:round;stroke-linejoin:round;stroke-dasharray:2.4267,3.2357;" x1="170.324" y1="275.704" x2="172.859" y2="272.553"/>
						
							<line style="fill:none;stroke:#FFFFFF;stroke-width:1.0649;stroke-linecap:round;stroke-linejoin:round;" x1="173.873" y1="271.292" x2="174.54" y2="270.462"/>
					</g>
				</g>
				<path style="fill:#FFFFFF;" d="M129.113,279.056c0-1.25,1.011-2.263,2.262-2.263c1.249,0,2.264,1.013,2.264,2.263
					c0,1.249-1.015,2.263-2.264,2.263C130.125,281.319,129.113,280.305,129.113,279.056z"/>
				<path style="fill:#FFFFFF;" d="M172.276,270.462c0-1.25,1.013-2.263,2.262-2.263c1.253,0,2.266,1.013,2.266,2.263
					s-1.013,2.264-2.266,2.264C173.289,272.726,172.276,271.712,172.276,270.462z"/>
			</g>
			<g>
				<rect x="56.332" y="247.035" style="fill:#FFFFFF;" width="68.45" height="58.583"/>
				<g>
					<path style="fill:#82B1DF;" d="M107.441,287.987c0,0.172,6.191-5.63,6.191-5.63c-1.531-1.681-3.737-2.737-6.191-2.737V287.987z
						"/>
					<path style="fill:#F99B2D;" d="M99.074,287.987c0,0,3.746,0,8.367,0v-8.367C102.82,279.621,99.074,283.368,99.074,287.987z"/>
					<path style="fill:#128C96;" d="M115.808,287.995c0,0-3.746,0-8.367,0v8.367C112.062,296.362,115.808,292.616,115.808,287.995z"
						/>
					<path style="fill:#071938;" d="M107.441,287.987h8.367c0-2.169-0.826-4.145-2.176-5.63L107.441,287.987z"/>
					<g>
						<path style="fill:#F495BF;" d="M107.441,287.997c0-0.173-6.188,5.63-6.188,5.63c1.529,1.68,3.735,2.736,6.188,2.736V287.997z"
							/>
						<path style="fill:#EA507E;" d="M107.441,287.997h-8.367c0,2.168,0.826,4.143,2.179,5.63L107.441,287.997z"/>
					</g>
				</g>
				<g>
					<path style="fill:#82B1DF;" d="M107.437,266.159c0,0.172,6.193-5.63,6.193-5.63c-1.531-1.681-3.74-2.736-6.193-2.736V266.159z"
						/>
					<path style="fill:#F99B2D;" d="M99.072,266.159c0,0,3.747,0,8.365,0v-8.367C102.818,257.792,99.072,261.539,99.072,266.159z"/>
					<path style="fill:#128C96;" d="M115.806,266.167c0,0-3.747,0-8.369,0v8.367C112.059,274.533,115.806,270.787,115.806,266.167z"
						/>
					<path style="fill:#071938;" d="M107.437,266.159h8.369c0-2.169-0.826-4.145-2.176-5.63L107.437,266.159z"/>
					<g>
						<path style="fill:#F495BF;" d="M107.437,266.168c0-0.173-6.188,5.63-6.188,5.63c1.531,1.682,3.737,2.738,6.188,2.738V266.168z
							"/>
						<path style="fill:#EA507E;" d="M107.437,266.168h-8.365c0,2.168,0.826,4.142,2.176,5.63L107.437,266.168z"/>
					</g>
				</g>
				<g>
					<path style="fill:#F69583;" d="M92.676,286.089c-1.031,4.455-7.269,12.884-12.891,12.884c-4.83,0-12.6-7.011-12.938-11.636
						c0,0-1.205-8.257-1.376-11.034c-0.512-8.215,7.171-14.896,14.313-14.896l0,0c7.148,0,15.104,6.687,14.519,14.896
						C94.107,279.084,93.304,283.375,92.676,286.089z"/>
					<g>
						<g>
							<g>
								<path style="fill:#071938;" d="M80.087,288.916c-0.061,0-0.129-0.004-0.191-0.007c-0.11-0.013-0.199-0.11-0.184-0.22
									c0.009-0.111,0.098-0.205,0.221-0.187c0.408,0.041,0.718-0.076,0.751-0.167c0.018-0.039-0.024-0.179-0.361-0.408
									c-1.015-0.69-1.134-3.096-1.139-3.195c-0.004-0.111,0.081-0.206,0.198-0.212c0.115-0.004,0.203,0.083,0.207,0.193
									c0.03,0.638,0.257,2.402,0.96,2.881c0.449,0.298,0.62,0.596,0.521,0.878C80.952,288.788,80.518,288.916,80.087,288.916z"/>
							</g>
						</g>
						<g>
							<g>
								<g>
									<path style="fill:#071938;" d="M73.34,283.139c-0.304,0-0.579,0.124-0.774,0.343c-0.161,0.196-0.245,0.443-0.245,0.71
										c0,0.527,0.353,1.065,1.02,1.065c0.317,0,0.591-0.125,0.784-0.348c0.166-0.19,0.254-0.44,0.254-0.717
										C74.377,283.67,74.024,283.139,73.34,283.139z"/>
								</g>
							</g>
						</g>
						<g>
							<g>
								<g>
									<path style="fill:#071938;" d="M86.08,283.139c0.304,0,0.579,0.124,0.774,0.343c0.162,0.196,0.245,0.443,0.245,0.71
										c0,0.527-0.353,1.065-1.019,1.065c-0.317,0-0.592-0.125-0.782-0.348c-0.167-0.19-0.255-0.44-0.255-0.717
										C85.042,283.67,85.395,283.139,86.08,283.139z"/>
								</g>
							</g>
						</g>
						<g>
							
								<path style="fill:none;stroke:#071938;stroke-width:0.5732;stroke-linecap:round;stroke-linejoin:round;stroke-miterlimit:10;" d="
								M88.512,280.476c0,0-1.141-1.416-3.687-0.555"/>
							
								<path style="fill:none;stroke:#071938;stroke-width:0.5732;stroke-linecap:round;stroke-linejoin:round;stroke-miterlimit:10;" d="
								M71.188,280.476c0,0,1.141-1.416,3.687-0.555"/>
						</g>
						<g>
							<path style="fill:#F37784;" d="M75.946,288.744c0,0.906-1.117,1.637-2.504,1.637c-1.381,0-2.501-0.73-2.501-1.637
								c0-0.903,1.119-1.634,2.501-1.634C74.829,287.11,75.946,287.841,75.946,288.744z"/>
							<path style="fill:#F37784;" d="M88.478,289.089c0,0.902-1.121,1.633-2.504,1.633c-1.383,0-2.503-0.731-2.503-1.633
								c0-0.906,1.12-1.639,2.503-1.639C87.357,287.451,88.478,288.183,88.478,289.089z"/>
						</g>
						<path style="fill:#FFFFFF;" d="M76.522,291.902c0.057,1.774,1.653,3.201,3.618,3.201c1.967,0,3.566-1.427,3.619-3.201H76.522z
							"/>
					</g>
					<path style="fill:#071938;" d="M86.226,259.65c0,3.295-3.041,5.973-6.791,5.973c-3.751,0-6.791-2.678-6.791-5.973
						c0-3.298,3.04-5.969,6.791-5.969C83.185,253.681,86.226,256.352,86.226,259.65z"/>
					<path style="fill:#F495BF;" d="M73.525,262.591c0,0,5.378-5.304,11.938,0C85.464,262.591,80.696,264.551,73.525,262.591z"/>
					<path style="fill:#071938;" d="M89.079,264.493c-5.212-3.829-14.311-4.478-19.559,0.74c-7.238,7.199-2.96,20.099-2.96,20.099
						s1.052,0.732,1.74-3.97c0.403-2.787,0.572-6.603,4.02-6.091c3.673,0.547,7.33-2.304,7.33-2.304s3.561,2.906,7.231,2.35
						c2.771-0.418,3.892,3.927,4.299,6.712c0.687,4.703,1.741,3.035,1.741,3.035S98.584,271.473,89.079,264.493z"/>
				</g>
			</g>
		</g>
	</g>
</g>
<g>
	<path style="fill:#FFFFFF;" d="M70.714,314.694c-1.767,0-3.246,1.251-3.606,2.913H0v1.566h67.108
		c0.36,1.663,1.839,2.912,3.606,2.912c2.038,0,3.696-1.657,3.696-3.695C74.41,316.352,72.752,314.694,70.714,314.694z
		 M70.714,320.518c-1.173,0-2.127-0.955-2.127-2.129s0.954-2.129,2.127-2.129c1.173,0,2.129,0.955,2.129,2.129
		S71.887,320.518,70.714,320.518z"/>
	<path style="fill:#FFFFFF;" d="M114.394,324.159c-1.765,0-3.243,1.25-3.604,2.912H0v1.567h110.79
		c0.361,1.662,1.839,2.912,3.604,2.912c2.038,0,3.696-1.658,3.696-3.695C118.09,325.816,116.433,324.159,114.394,324.159z
		 M114.394,329.984c-1.171,0-2.125-0.955-2.125-2.129c0-1.173,0.954-2.128,2.125-2.128c1.175,0,2.129,0.955,2.129,2.128
		C116.523,329.029,115.569,329.984,114.394,329.984z"/>
	<path style="fill:#FFFFFF;" d="M62.531,333.371c-1.597,0-2.947,1.025-3.462,2.446H0v1.567h58.87
		c0.165,1.887,1.733,3.378,3.661,3.378c2.037,0,3.694-1.659,3.694-3.697C66.225,335.028,64.568,333.371,62.531,333.371z
		 M62.531,339.195c-1.172,0-2.127-0.956-2.127-2.13c0-1.173,0.955-2.127,2.127-2.127c1.172,0,2.127,0.954,2.127,2.127
		C64.658,338.24,63.703,339.195,62.531,339.195z"/>
	<path style="fill:#FFFFFF;" d="M138.735,354.154c-1.769,0-3.245,1.249-3.606,2.912h-24.896l-23.434-10.862H10.784L0,350.593v1.691
		l11.091-4.515h75.361l23.436,10.864h25.241c0.361,1.662,1.837,2.912,3.606,2.912c2.038,0,3.695-1.658,3.695-3.695
		C142.43,355.811,140.773,354.154,138.735,354.154z M138.735,359.978c-1.173,0-2.127-0.956-2.127-2.129
		c0-1.174,0.954-2.129,2.127-2.129c1.173,0,2.128,0.955,2.128,2.129C140.863,359.023,139.908,359.978,138.735,359.978z"/>
	<path style="fill:#FFFFFF;" d="M97.766,363.86c-1.769,0-3.247,1.25-3.608,2.912H0v1.567h94.158
		c0.361,1.662,1.839,2.913,3.608,2.913c2.035,0,3.692-1.659,3.692-3.696C101.458,365.518,99.801,363.86,97.766,363.86z
		 M97.766,369.685c-1.174,0-2.129-0.956-2.129-2.13c0-1.173,0.955-2.129,2.129-2.129c1.172,0,2.125,0.956,2.125,2.129
		C99.891,368.73,98.938,369.685,97.766,369.685z"/>
	<path style="fill:#FFFFFF;" d="M127.461,386.867c-1.766,0-3.242,1.249-3.602,2.91H66.762l-16.027-14.17H0v1.566h50.14
		l16.028,14.171h57.691c0.36,1.662,1.836,2.912,3.602,2.912c2.037,0,3.695-1.657,3.695-3.695
		C131.156,388.523,129.498,386.867,127.461,386.867z M127.461,392.689c-1.171,0-2.123-0.955-2.123-2.128
		c0-1.173,0.952-2.126,2.123-2.126c1.173,0,2.129,0.954,2.129,2.126C129.589,391.734,128.634,392.689,127.461,392.689z"/>
</g>
<g>
	<polygon style="fill:#FFFFFF;" points="443.48,25.258 376.72,25.258 354.859,17.195 312.231,17.195 312.231,18.538 354.62,18.538 
		376.481,26.601 443.48,26.601 	"/>
	<path style="fill:#FFFFFF;" d="M443.48,33.37H338.635c-0.31-1.424-1.578-2.496-3.094-2.496c-1.745,0-3.164,1.42-3.164,3.167
		s1.42,3.167,3.164,3.167c1.516,0,2.784-1.071,3.094-2.496H443.48V33.37z M335.542,35.866c-1.005,0-1.821-0.819-1.821-1.825
		c0-1.005,0.816-1.824,1.821-1.824c1.007,0,1.826,0.819,1.826,1.824C337.368,35.047,336.548,35.866,335.542,35.866z"/>
	<path style="fill:#FFFFFF;" d="M325.794,77.093h-12.146v1.342H326.2l6.072-4.046h15.826l9.003,4.688
		c-0.002,0.046-0.014,0.091-0.014,0.138c0,1.747,1.421,3.168,3.168,3.168s3.167-1.421,3.167-3.168c0-1.746-1.42-3.166-3.167-3.166
		c-1.215,0-2.261,0.696-2.792,1.702l-9.037-4.705h-16.561L325.794,77.093z M360.254,77.393c1.006,0,1.824,0.818,1.824,1.823
		c0,1.007-0.818,1.826-1.824,1.826c-1.006,0-1.825-0.819-1.825-1.826C358.429,78.21,359.248,77.393,360.254,77.393z"/>
	<path style="fill:#FFFFFF;" d="M443.48,40.866h-76.722l-12.609,6.479h-24.655c-0.281-1.461-1.565-2.569-3.107-2.569
		c-1.746,0-3.167,1.421-3.167,3.167c0,1.747,1.421,3.167,3.167,3.167c1.489,0,2.733-1.036,3.07-2.423h25.017l12.608-6.478h76.397
		V40.866z M326.387,49.767c-1.006,0-1.824-0.818-1.824-1.825c0-1.006,0.818-1.825,1.824-1.825c1.006,0,1.825,0.819,1.825,1.825
		C328.212,48.949,327.394,49.767,326.387,49.767z"/>
	<polygon style="fill:#FFFFFF;" points="443.48,49.767 404.674,49.767 381.801,59.077 308.183,59.077 308.183,60.42 382.064,60.42 
		404.937,51.109 443.48,51.109 	"/>
	<rect x="335.814" y="67.396" style="fill:#FFFFFF;" width="107.666" height="1.343"/>
	<path style="fill:#FFFFFF;" d="M443.48,79.004l-4.566-4.037h-45.078l-22.303,12.145h-42.709c-0.309-1.424-1.576-2.494-3.091-2.494
		c-1.747,0-3.167,1.419-3.167,3.165c0,1.747,1.421,3.167,3.167,3.167c1.516,0,2.782-1.071,3.091-2.496h43.051l22.304-12.146h44.227
		l5.075,4.487V79.004z M325.732,89.608c-1.006,0-1.824-0.818-1.824-1.824c0-1.005,0.818-1.823,1.824-1.823
		c1.005,0,1.823,0.818,1.823,1.823C327.555,88.789,326.737,89.608,325.732,89.608z"/>
</g>
</svg>
