<?xml version="1.0" encoding="utf-8"?>
<!-- Generator: Adobe Illustrator 27.5.0, SVG Export Plug-In . SVG Version: 6.00 Build 0)  -->
<svg version="1.1" xmlns="http://www.w3.org/2000/svg" xmlns:xlink="http://www.w3.org/1999/xlink" x="0px" y="0px"
	 viewBox="0 0 800 800" style="enable-background:new 0 0 800 800;" xml:space="preserve">
<g id="BACKGROUND">
	<rect style="fill:#2889CD;" width="800" height="800"/>
	<g style="opacity:0.5;">
		<ellipse style="fill:#1CCDF9;" cx="743.604" cy="441.327" rx="11.568" ry="12.469"/>
	</g>
	<g style="opacity:0.5;">
		<ellipse style="fill:#1CCDF9;" cx="112.885" cy="611.254" rx="11.568" ry="12.469"/>
	</g>
	<g>
		<path style="fill:#1CCDF9;" d="M711.655,448.388c6.05,0,11-4.95,11-11v-2.582c0-6.05-4.95-11-11-11h-16.003c-6.05,0-11-4.95-11-11
			v-2.017c0-6.05,3.814-11,8.477-11s8.476-4.95,8.476-11v-2.582c0-6.05,0-11,0-11s0-4.95,0-11v-2.299c0-6.05-4.95-11-11-11h-9.434
			c-6.05,0-11-4.95-11-11v-2.017c0-6.05,0-11.064,0-11.141s0-5.091,0-11.141v-2.017c0-6.05,4.95-11,11-11h0.674
			c6.05,0,11-4.95,11-11v-2.299c0-6.05,0-11.064,0-11.141s0-5.091,0-11.141v-2.299c0-6.05-4.95-11-11-11h-43.693
			c-6.05,0-11-4.95-11-11v-2.299c0-6.05-4.95-11-11-11h-3.006c-6.05,0-11-4.95-11-11v-2.017c0-6.05,0-11.063,0-11.141
			c0-0.078,0-5.091,0-11.141v-2.299c0-6.05-4.95-11-11-11h-27.729c-6.05,0-11-4.95-11-11v-2.299c0-6.05-4.95-11-11-11h-22.078
			c-6.05,0-11-4.95-11-11v-2.299c0-6.05-4.95-11-11-11h-12.728c-6.05,0-11-4.95-11-11v-5.812c0-6.05-4.95-11-11-11h-4.665
			c-6.05,0-15.95,0-22,0h-57.52c-6.05,0-15.95,0-22,0h-4.665c-6.05,0-11,4.95-11,11v5.812c0,6.05-4.95,11-11,11h-5.806
			c-6.05,0-11,4.95-11,11v2.299c0,6.05-4.95,11-11,11H275.36c-6.05,0-11,4.95-11,11v2.299c0,6.05-4.95,11-11,11h-23.33
			c-6.05,0-11,4.95-11,11v2.582c0,6.05,0.536,11,1.191,11c0.655,0,1.191,4.95,1.191,11v2.017c0,6.05-4.95,11-11,11h-13.176
			c-6.05,0-11,4.95-11,11v2.299c0,6.05-4.95,11-11,11h-38.093c-6.05,0-11,4.95-11,11v2.299c0,6.05,4.95,11.047,10.999,11.104
			l8.001,0.075c6.05,0.057,10.999,5.054,10.999,11.104v2.017c0,6.05-4.95,11-11,11h-24.075c-6.05,0-11,4.95-11,11v2.299
			c0,6.05-4.95,11-11,11H67.182c-6.05,0-11,4.95-11,11v2.582c0,6.05,4.95,11,11,11h28.011c6.05,0,11,4.95,11,11v2.017
			c0,6.05-4.95,11-11,11H82.722c-6.05,0-11,4.95-11,11v2.582c0,6.05,4.95,11,11,11h40.039c6.05,0,11,4.95,11,11v2.017
			c0,6.05-4.95,11-11,11H105.83c-6.05,0-11,4.95-11,11v2.582c0,6.05,4.75,11,10.555,11c5.805,0,10.555,4.95,10.555,11v2.299
			c0,6.05,0.018,11,0.041,11c0.022,0,0.041,4.95,0.041,11v2.017c0,6.05-4.95,11-11,11h-1.452c-6.05,0-11,4.95-11,11v2.582
			c0,6.05,4.95,11,11,11h5.125c6.05,0,11,4.95,11,11v2.299c0,6.05,4.95,11,11,11h48.972c6.05,0,11,4.95,11,11v2.299
			c0,6.05-4.95,11-11,11h-4.582c-6.05,0-11,4.95-11,11v2.017c0,6.05-4.95,11-11,11h-8.828c-6.05,0-11,4.95-11,11v2.582
			c0,6.05,4.95,11,11,11h18.334c6.05,0,11,4.95,11,11v2.299c0,6.05,4.95,11,11,11h20.171c6.05,0,11,4.95,11,11v2.299
			c0,6.05,4.95,11,11,11h17.839c6.05,0,11,4.95,11,11v2.299c0,6.05,4.95,11,11,11h11.341c6.05,0,15.95,0,22,0H497.2
			c6.05,0,15.95,0,22,0h18.324c6.05,0,11-4.95,11-11v-2.299c0-6.05,4.95-11,11-11h33.177c6.05,0,11-4.95,11-11v-2.299
			c0-6.05,4.95-11,11-11h12.259c6.05,0,11-4.95,11-11v-2.299c0-6.05,0-11,0-11s0-4.95,0-11v-2.299c0-6.05,4.95-11,11-11h0.251
			c6.05,0,11-4.95,11-11v-2.299c0-6.05,0-11.063,0-11.141c0-0.078,0-5.091,0-11.141v-2.017c0-6.05,4.95-11,11-11h7.526
			c6.05,0,11-4.95,11-11v-2.299c0-6.05,0-11.064,0-11.141s0-5.091,0-11.141v-2.017c0-6.05,4.196-11,9.324-11s9.324-4.95,9.324-11
			v-2.582c0-6.05-4.95-11-11-11h-1.734c-6.05,0-11-4.95-11-11v-2.017c0-6.05,4.95-11,11-11H711.655z"/>
	</g>
</g>
<g id="OBJECTS">
	<g>
		
			<rect x="600.759" y="478.043" transform="matrix(0.57 -0.8216 0.8216 0.57 -144.0131 708.5101)" style="fill:#434242;" width="8.384" height="27.623"/>
		
			<ellipse transform="matrix(0.1301 -0.9915 0.9915 0.1301 33.1472 980.2692)" style="fill:#434242;" cx="575.244" cy="471.243" rx="32.637" ry="32.637"/>
		
			<ellipse transform="matrix(0.9438 -0.3305 0.3305 0.9438 -123.4122 216.5758)" style="fill:#47A4FF;" cx="575.244" cy="471.243" rx="28.403" ry="28.403"/>
		<path style="fill:#F68F04;" d="M650.835,523.981c-2.761,3.903-8.163,4.828-12.066,2.068l-28.699-20.302
			c-3.903-2.761-4.828-8.163-2.068-12.066l0,0c2.761-3.903,8.163-4.829,12.066-2.068l28.699,20.302
			C652.67,514.676,653.596,520.078,650.835,523.981L650.835,523.981z"/>
		<path style="fill:#73BAFF;" d="M552.033,454.873c-0.091,0.127-0.173,0.258-0.262,0.387l41.689,28.924l4.971,3.449
			c0.827-1.186,1.552-2.412,2.175-3.671c6.068-12.26,2.539-27.457-8.948-35.672C578.898,439.166,561.157,442.113,552.033,454.873z"
			/>
		<path style="fill:#F1A30D;" d="M610.977,491.158c-1.187,0.616-2.251,1.51-3.076,2.677c-0.059,0.083-0.107,0.171-0.162,0.256
			l8.422,5.844l34.666,24.052c2.636-3.891,1.693-9.19-2.162-11.917l-28.699-20.302C617.23,489.831,613.76,489.714,610.977,491.158z"
			/>
	</g>
	<g>
		<g>
			
				<rect x="186.908" y="401.467" transform="matrix(0.0083 -1 1 0.0083 -207.2998 609.4727)" style="fill:#FAB802;" width="33.444" height="15.569"/>
			<path style="fill:#FAD000;" d="M236.362,430.431c0.072-8.622-6.859-15.669-15.481-15.741l-34.591-0.287
				c-8.621-0.072-15.669,6.859-15.74,15.481C197.37,430.107,203.786,430.204,236.362,430.431z"/>
			<path style="fill:#FAB802;" d="M125.983,323.169l50.126,0.417l-0.062,7.431c0,0-30.075-0.056-40.331-0.335
				c-0.08,9.655,13.519,35.44,41.851,36.83c0,0-0.037,1.946-0.067,8.039C168.286,375.475,126.231,366.477,125.983,323.169z"/>
			<path style="fill:#FAB802;" d="M283.882,324.482l-50.126-0.417l-0.062,7.431c0,0,30.072,0.443,40.331,0.335
				c-0.08,9.655-14.107,35.211-42.458,36.129c0,0,0.005,1.947-0.067,8.039C240.715,376.077,282.914,367.78,283.882,324.482z"/>
			<path style="fill:#FAB802;" d="M204.428,313.284l-48.721-0.405c-0.444,53.361,16.482,81.924,48.041,82.186
				c32.906,0.274,48.957-28.015,49.4-81.376L204.428,313.284z"/>
			<path style="fill:#FAD000;" d="M155.619,323.404c-0.443,53.361,24.348,71.463,48.128,71.661
				c23.78,0.198,48.869-17.491,49.313-70.851L155.619,323.404z"/>
			<path style="fill:#FCEF67;" d="M189.014,350.985c0,0-1.231-14.311,14.784-14.178c14.13,0.117,15.477,10.204,15.459,12.284
				c-0.109,13.065-10.533,8.103-10.619,18.438l-8.775-0.073c0.102-12.22,9.844-11.229,9.898-17.729
				c0.021-2.535-1.381-5.927-5.587-5.962c-4.829-0.04-6.81,3.775-6.84,7.289C192.655,351.015,189.014,350.985,189.014,350.985z"/>
			
				<rect x="199.095" y="371.456" transform="matrix(0.0083 -1 1 0.0083 -173.9124 576.9076)" style="fill:#FCEF67;" width="9.62" height="9.36"/>
			<path style="fill:none;stroke:#F5B903;stroke-miterlimit:10;" d="M204.322,325.925"/>
		</g>
		<path style="opacity:0.3;fill:#939389;" d="M204.428,313.285l-48.721-0.405c-0.03,3.628,0.027,7.13,0.157,10.527l-0.244-0.002
			c0,0.004,0,0.008,0,0.012l-29.637-0.246c0.191,33.315,25.12,46.325,40.809,50.59c4.467,7.245,9.983,12.402,16.018,15.822
			c0.101,0.06,0.205,0.113,0.307,0.172c0.393,0.218,0.785,0.439,1.182,0.642c3.573,1.901,7.464,3.228,11.669,3.965l-0.167,20.121
			l-9.511-0.079c-8.621-0.072-15.669,6.859-15.74,15.481c14.756,0.123,23.34,0.207,33.498,0.297l0.972-116.891L204.428,313.285z
			 M135.716,330.683c4.368,0.119,12.329,0.197,20.032,0.248c0.52,13.306,2.726,24.191,6.148,32.944
			C144.211,356.147,135.653,338.344,135.716,330.683z"/>
	</g>
	<g>
		<path style="fill:#FAD000;" d="M653.994,372.308c14.977-0.022,29.969,11.016,29.993,27.298s-13.567,18.453-13.553,28.283
			c0.014,9.831,0.031,21.121,0.031,21.121l-16.359,0.024l-16.359,0.024c0,0-0.016-11.29-0.031-21.121
			c-0.014-9.831-13.612-11.961-13.635-28.243S639.017,372.33,653.994,372.308z"/>
		<path style="fill:none;stroke:#EDEEF2;stroke-width:3;stroke-miterlimit:10;" d="M638.502,397.751
			c1.889-0.003,2.964,1.681,4.751,1.678c1.787-0.003,2.704-8.429,10.774-8.441c8.071-0.012,8.709,8.412,10.786,8.409
			c2.078-0.003,3.24-1.69,4.746-1.692c1.507-0.002,3.167,0.742,3.17,3.059c0.003,2.317-18.664,21.007-18.633,42.469
			c-0.031-21.463-18.755-41.169-18.757-42.415C635.339,399.574,636.613,397.754,638.502,397.751z"/>
		<path style="fill:#545351;" d="M642.881,453.601c0.008,5.567,5.044,10.073,11.247,10.064c6.203-0.009,11.226-4.53,11.218-10.097
			c-0.008-5.567-5.044-10.073-11.247-10.064C647.895,443.513,642.872,448.034,642.881,453.601z"/>
		
			<rect x="636.995" y="438.263" transform="matrix(1 -0.0015 0.0015 1 -0.6532 0.9582)" style="fill:#3B3A39;" width="34.216" height="16.589"/>
		<path style="opacity:0.3;fill:#FFEEF1;" d="M683.987,399.676c0.024,16.282-13.567,18.453-13.553,28.283
			c0.005,3.454,0.01,7.087,0.015,10.349l0.749-0.001l0.024,16.589l-5.974,0.009c-0.681,4.913-5.295,8.729-10.933,8.821
			l-0.134-91.345C669.096,372.452,683.964,383.462,683.987,399.676z"/>
	</g>
	<g>
		
			<text transform="matrix(1 0 0 1 278.7846 668.9183)" style="fill:#FFFFFF; font-family:'NexaRustSans-Black'; font-size:90.5575px;">Quiz</text>
	</g>
	<path style="fill:#E53328;" d="M526.669,543.461c0,0,9.828-1.885,11.428-2.321c1.869-0.509,2.977-0.904,2.89-2.01
		c-0.123-1.559-2.945-1.924-3.443-4.216c-0.478-2.199,0.227-5.09,3.799-5.816c3.571-0.725,5.529,1.79,5.74,3.264
		c0.463,3.236-1.659,4.411-1.362,5.871c0.132,0.652,1.52,1.115,3.256,0.746c1.736-0.369,11.618-2.359,11.618-2.359l2.217,10.914
		c0,0,0.734,3.634,2.225,3.331c1.491-0.303,2.067-2.877,4.303-3.331s4.997,0.085,5.773,3.904c0.776,3.82-1.876,5.253-3.613,5.616
		c-2.451,0.512-4.143-1.454-5.485-1.214c0,0-1.328,0.593-0.769,3.681c0.559,3.088,2.226,10.962,2.226,10.962l-11.431,2.322
		c0,0-2.858,0.694-3.281-0.554c-0.423-1.248,2.172-3.278,1.334-5.849c-0.837-2.57-3.092-3.883-5.654-3.362
		c-2.562,0.52-4.518,2.591-4.08,5.582c0.41,2.801,3.305,3.136,3.467,4.534c0,0,0.465,1.336-3.983,2.24
		c-4.448,0.904-10.249,2.154-10.249,2.154s-1.661-7.981-1.864-9.177c-0.202-1.196-1.198-5.383,0.316-5.69
		c1.514-0.307,2.746,1.94,5.774,1.325c3.028-0.615,3.657-3.847,3.174-6.222s-3.256-3.971-5.515-3.512
		c-2.259,0.459-2.857,3.248-4.371,3.555s-2.191-3.217-2.721-5.826C527.857,549.396,526.669,543.461,526.669,543.461z"/>
	<path style="fill:#EEAE06;" d="M608.04,532.491c0,0,1.885,9.827,2.321,11.428c0.509,1.869,0.904,2.977,2.01,2.89
		c1.56-0.123,1.924-2.945,4.216-3.443c2.199-0.478,5.09,0.227,5.816,3.799c0.725,3.571-1.79,5.528-3.264,5.74
		c-3.236,0.463-4.411-1.659-5.871-1.362c-0.652,0.133-1.115,1.52-0.746,3.256c0.369,1.736,2.359,11.618,2.359,11.618l-10.915,2.217
		c0,0-3.634,0.734-3.331,2.225c0.303,1.491,2.877,2.067,3.331,4.303s-0.085,4.997-3.904,5.772c-3.82,0.776-5.253-1.876-5.616-3.613
		c-0.512-2.451,1.454-4.143,1.214-5.485c0,0-0.593-1.328-3.681-0.769c-3.088,0.559-10.962,2.226-10.962,2.226l-2.322-11.431
		c0,0-0.694-2.858,0.554-3.281c1.248-0.423,3.278,2.172,5.849,1.334c2.57-0.837,3.883-3.092,3.362-5.654
		c-0.52-2.562-2.591-4.518-5.582-4.08c-2.801,0.41-3.136,3.305-4.534,3.467c0,0-1.336,0.465-2.24-3.983s-2.154-10.249-2.154-10.249
		s7.981-1.661,9.177-1.864s5.383-1.198,5.69,0.316c0.307,1.514-1.94,2.746-1.325,5.774c0.615,3.028,3.847,3.657,6.222,3.174
		c2.376-0.482,3.971-3.256,3.512-5.515s-3.248-2.857-3.555-4.371c-0.307-1.514,3.217-2.191,5.826-2.721
		C602.105,533.679,608.04,532.491,608.04,532.491z"/>
	<path style="fill:#E53328;" d="M252.066,612.769c0,0-9.921,1.309-11.544,1.65c-1.895,0.399-3.025,0.729-3.002,1.838
		c0.032,1.564,2.828,2.093,3.191,4.409c0.348,2.223-0.524,5.068-4.131,5.584c-3.608,0.516-5.415-2.109-5.539-3.594
		c-0.274-3.258,1.913-4.307,1.702-5.781c-0.094-0.659-1.452-1.202-3.207-0.935c-1.754,0.268-11.736,1.677-11.736,1.677
		l-1.576-11.025c0,0-0.521-3.671-2.027-3.455c-1.506,0.215-2.231,2.752-4.49,3.075c-2.258,0.323-4.983-0.376-5.535-4.234
		c-0.552-3.858,2.179-5.135,3.934-5.396c2.476-0.368,4.051,1.694,5.405,1.532c0,0,1.36-0.514,0.982-3.629
		c-0.378-3.115-1.583-11.073-1.583-11.073l11.547-1.651c0,0,2.894-0.526,3.243,0.745s-2.359,3.146-1.673,5.761
		s2.861,4.056,5.449,3.686c2.588-0.37,4.661-2.323,4.399-5.334c-0.246-2.82-3.116-3.324-3.197-4.729c0,0-0.387-1.361,4.107-2.004
		c4.494-0.642,10.357-1.553,10.357-1.553s1.193,8.064,1.325,9.27c0.132,1.205,0.882,5.444-0.647,5.662
		c-1.529,0.219-2.628-2.097-5.687-1.66c-3.059,0.437-3.875,3.627-3.532,6.027c0.343,2.4,3.019,4.154,5.301,3.828
		c2.282-0.326,3.041-3.076,4.571-3.294c1.529-0.219,2,3.339,2.376,5.974S252.066,612.769,252.066,612.769z"/>
	<path style="fill:#A4E65E;" d="M537.894,589.612c0,0,9.828-1.885,11.428-2.321c1.869-0.509,2.977-0.904,2.89-2.01
		c-0.123-1.56-2.945-1.924-3.443-4.216c-0.477-2.199,0.227-5.09,3.799-5.816c3.571-0.725,5.529,1.79,5.74,3.264
		c0.463,3.236-1.659,4.411-1.362,5.871c0.132,0.652,1.52,1.116,3.256,0.746c1.736-0.369,11.618-2.359,11.618-2.359l2.217,10.914
		c0,0,0.734,3.634,2.225,3.331c1.491-0.303,2.067-2.877,4.303-3.331s4.997,0.085,5.773,3.904c0.776,3.82-1.876,5.253-3.613,5.616
		c-2.451,0.512-4.143-1.454-5.485-1.214c0,0-1.328,0.593-0.769,3.681c0.559,3.088,2.226,10.962,2.226,10.962l-11.431,2.322
		c0,0-2.858,0.694-3.281-0.554c-0.423-1.248,2.172-3.278,1.334-5.849c-0.837-2.57-3.092-3.883-5.654-3.362
		c-2.562,0.52-4.518,2.591-4.08,5.582c0.41,2.801,3.305,3.136,3.467,4.534c0,0,0.465,1.336-3.983,2.24
		c-4.448,0.904-10.249,2.154-10.249,2.154s-1.661-7.981-1.864-9.177c-0.202-1.196-1.198-5.383,0.316-5.69
		c1.514-0.307,2.746,1.94,5.774,1.325c3.028-0.615,3.657-3.847,3.174-6.222c-0.482-2.376-3.256-3.971-5.515-3.512
		c-2.259,0.459-2.857,3.248-4.371,3.555c-1.514,0.307-2.191-3.217-2.721-5.826C539.081,595.547,537.894,589.612,537.894,589.612z"/>
	<path style="fill:#FAD000;" d="M618.161,579.312c0,0,1.885,9.828,2.321,11.428c0.509,1.869,0.904,2.977,2.01,2.89
		c1.56-0.123,1.924-2.945,4.216-3.443c2.199-0.478,5.09,0.227,5.816,3.799c0.725,3.571-1.79,5.528-3.264,5.739
		c-3.236,0.463-4.411-1.659-5.871-1.362c-0.652,0.132-1.116,1.52-0.746,3.256c0.369,1.736,2.359,11.618,2.359,11.618l-10.915,2.217
		c0,0-3.634,0.734-3.331,2.225c0.303,1.491,2.877,2.067,3.331,4.303s-0.085,4.997-3.904,5.773c-3.82,0.776-5.253-1.876-5.616-3.613
		c-0.512-2.451,1.454-4.143,1.214-5.485c0,0-0.593-1.328-3.681-0.769c-3.088,0.559-10.962,2.226-10.962,2.226l-2.322-11.431
		c0,0-0.694-2.858,0.554-3.281c1.248-0.423,3.279,2.172,5.849,1.334c2.57-0.837,3.883-3.092,3.362-5.654
		c-0.52-2.562-2.591-4.518-5.582-4.08c-2.801,0.41-3.136,3.305-4.534,3.467c0,0-1.336,0.465-2.24-3.983
		c-0.903-4.448-2.154-10.249-2.154-10.249s7.981-1.661,9.177-1.864c1.196-0.202,5.383-1.198,5.69,0.316
		c0.307,1.514-1.94,2.746-1.325,5.774c0.615,3.028,3.847,3.657,6.223,3.174c2.376-0.483,3.971-3.256,3.512-5.515
		s-3.248-2.857-3.555-4.371c-0.307-1.514,3.217-2.191,5.826-2.721C612.227,580.499,618.161,579.312,618.161,579.312z"/>
	<path style="fill:#E9E8E4;" d="M585.584,173.802H503.95c-11.15,0-20.189,9.039-20.189,20.189v59.251
		c0,11.15,9.039,20.189,20.189,20.189h20.505c0.117,11.82-4.788,22.849-5.893,26.129c17.178-7.846,25.801-18.052,30.136-26.129
		h36.886c11.15,0,20.189-9.039,20.189-20.189v-59.251C605.773,182.841,596.734,173.802,585.584,173.802z"/>
	<path style="fill:#FFFFFF;" d="M675.582,258.436c-0.099-25.786-24.89-46.594-55.372-46.477s-55.112,21.116-55.012,46.902
		c0.099,25.786,24.89,46.594,55.372,46.477c0.803-0.003,1.599-0.029,2.394-0.06c5.271,7.441,14.487,16.012,30.583,22.234
		c-1.369-3.385-7.387-14.971-7.628-27.5C663.602,292.171,675.652,276.482,675.582,258.436z"/>
	<path style="fill:#FFFFFF;" d="M506.835,352.954c0.095-24.597,23.742-44.446,52.818-44.334
		c29.076,0.112,52.57,20.142,52.475,44.739c-0.095,24.597-23.742,44.446-52.818,44.334c-0.766-0.003-1.526-0.027-2.284-0.058
		c-5.028,7.097-13.819,15.273-29.173,21.209c1.306-3.229,7.046-14.28,7.276-26.232C518.263,385.134,506.769,370.168,506.835,352.954
		z"/>
	<polygon style="fill:#6EBC1A;" points="591.627,255.364 614.534,271.663 654.914,235.394 614.827,286.494 	"/>
	<g>
		<g>
			<path style="fill:#FAD000;" d="M523.123,216.448c0,0-1.568-18.219,18.821-18.049c17.988,0.15,19.702,12.991,19.68,15.639
				c-0.138,16.632-13.409,10.316-13.518,23.473l-11.171-0.093c0.129-15.557,12.532-14.295,12.601-22.57
				c0.027-3.227-1.758-7.545-7.113-7.59c-6.147-0.051-8.67,4.805-8.707,9.279C527.756,216.487,523.123,216.448,523.123,216.448z"/>
			
				<rect x="536.236" y="241.355" transform="matrix(0.0083 -1 1 0.0083 290.5445 787.5963)" style="fill:#FAD000;" width="12.247" height="11.916"/>
		</g>
	</g>
	<g>
		<path style="fill:#FFFFFF;" d="M492.023,547.313c0,3.852-3.122,6.974-6.974,6.974H311.853c-3.851,0-6.974-3.122-6.974-6.974
			V293.912c0-3.851,3.123-6.974,6.974-6.974h173.196c3.852,0,6.974,3.123,6.974,6.974V547.313z"/>
		<path style="fill:#3B3A39;" d="M485.049,558.287H311.853c-6.051,0-10.974-4.923-10.974-10.975V293.912
			c0-6.051,4.923-10.974,10.974-10.974h173.196c6.052,0,10.975,4.923,10.975,10.974v253.401
			C496.024,553.365,491.101,558.287,485.049,558.287z M311.853,290.938c-1.64,0-2.974,1.334-2.974,2.974v253.401
			c0,1.641,1.334,2.975,2.974,2.975h173.196c1.641,0,2.975-1.334,2.975-2.975V293.912c0-1.64-1.334-2.974-2.975-2.974H311.853z"/>
		<rect x="334.125" y="273.658" style="fill:#FAD000;" width="128.652" height="43.502"/>
		<rect x="334.125" y="296.712" style="fill:#FAB802;" width="128.652" height="20.448"/>
		<path style="fill:#FAD000;" d="M415.406,273.658c0,8.888-7.205,16.093-16.093,16.093c-8.887,0-16.092-7.205-16.092-16.093
			c0-8.887,7.205-16.093,16.092-16.093C408.202,257.565,415.406,264.771,415.406,273.658z"/>
		<path style="fill:#2889CD;" d="M406.45,273.658c0,3.941-3.195,7.137-7.137,7.137c-3.941,0-7.137-3.195-7.137-7.137
			c0-3.941,3.195-7.136,7.137-7.136C403.256,266.521,406.45,269.716,406.45,273.658z"/>
		<rect x="319.736" y="343.125" style="fill:#EDEEF2;" width="147.269" height="3.587"/>
		<rect x="319.736" y="349.658" style="fill:#EDEEF2;" width="96.798" height="3.587"/>
		<rect x="319.736" y="356.294" style="fill:#EDEEF2;" width="73.635" height="3.587"/>
		<rect x="351.047" y="387.359" style="fill:#EDEEF2;" width="116.958" height="5.56"/>
		<rect x="351.047" y="415.359" style="fill:#EDEEF2;" width="116.958" height="5.56"/>
		<rect x="351.047" y="443.859" style="fill:#EDEEF2;" width="116.958" height="5.56"/>
		<rect x="351.047" y="470.442" style="fill:#EDEEF2;" width="116.958" height="5.56"/>
		<rect x="350.047" y="495.661" style="fill:#EDEEF2;" width="116.958" height="5.56"/>
		<g>
			<g>
				<path style="fill:#EDEEF2;" d="M338.617,380.877v15.882h-15.882v-15.882H338.617 M341.617,377.877h-21.882v21.882h21.882
					V377.877L341.617,377.877z"/>
			</g>
		</g>
		<g>
			<g>
				<path style="fill:#EDEEF2;" d="M338.617,409.245v15.882h-15.882v-15.882H338.617 M341.617,406.245h-21.882v21.882h21.882
					V406.245L341.617,406.245z"/>
			</g>
		</g>
		<g>
			<g>
				<path style="fill:#EDEEF2;" d="M338.617,437.584v15.882h-15.882v-15.882H338.617 M341.617,434.584h-21.882v21.882h21.882
					V434.584L341.617,434.584z"/>
			</g>
		</g>
		<g>
			<g>
				<path style="fill:#EDEEF2;" d="M338.617,466.281v15.882h-15.882v-15.882H338.617 M341.617,463.281h-21.882v21.882h21.882
					V463.281L341.617,463.281z"/>
			</g>
		</g>
		<g>
			<g>
				<path style="fill:#EDEEF2;" d="M338.617,494.5v15.882h-15.882V494.5H338.617 M341.617,491.5h-21.882v21.882h21.882V491.5
					L341.617,491.5z"/>
			</g>
		</g>
		<polygon style="fill:#6EBC1A;" points="321.666,382.797 330.165,388.844 345.147,375.388 330.274,394.346 		"/>
		<g>
			<path style="fill:#F68F04;" d="M448.093,510.433c3.038,3.046,3.032,7.979-0.014,11.017l0,0
				c-3.046,3.038-7.979,3.032-11.017-0.014l-10.795-10.824c-3.038-3.046-3.032-7.979,0.014-11.017l0,0
				c3.046-3.038,7.979-3.032,11.017,0.014L448.093,510.433z"/>
			
				<rect x="430.12" y="507.579" transform="matrix(0.708 -0.7062 0.7062 0.708 -233.2058 458.574)" style="fill:#D3D3D3;" width="15.698" height="7.467"/>
			<polygon style="fill:#ECDCA8;" points="348.899,433.343 360.014,422.257 338.7,411.877 			"/>
			<polygon style="fill:#1D8246;" points="338.373,411.663 341.569,418.39 345.047,414.913 			"/>
			
				<rect x="387.041" y="411.04" transform="matrix(0.7071 -0.7071 0.7071 0.7071 -215.4314 416.3746)" style="fill:#559C1C;" width="15.703" height="114.391"/>
			
				<rect x="391.449" y="411.04" transform="matrix(0.7071 -0.7071 0.7071 0.7071 -215.4309 416.3684)" style="fill:#6EBC1A;" width="6.888" height="114.391"/>
		</g>
		<polygon style="fill:#6EBC1A;" points="321.666,411.527 330.165,417.574 345.147,404.118 330.274,423.076 		"/>
	</g>
	<g>
		<path style="fill:#FFFFFF;" d="M185.396,474.025c0.034,16.633-13.421,30.145-30.054,30.179
			c-16.633,0.035-30.145-13.42-30.18-30.053c-0.034-16.633,13.421-30.145,30.054-30.18
			C171.849,443.937,185.361,457.392,185.396,474.025z"/>
		<path style="fill:#E53328;" d="M155.278,505.823c-17.461,0-31.698-14.207-31.735-31.669c-0.036-17.499,14.171-31.766,31.67-31.803
			c17.528,0,31.766,14.207,31.803,31.67c0.036,17.5-14.171,31.766-31.67,31.802H155.278z M155.28,445.591
			c-15.773,0.034-28.53,12.844-28.497,28.557c0.033,15.68,12.816,28.436,28.496,28.436v1.62l0.062-1.62
			c15.713-0.032,28.469-12.843,28.437-28.556C183.743,458.348,170.96,445.591,155.28,445.591z"/>
		<path style="fill:#E53328;" d="M159.002,435.573c0.001,0.536-0.433,0.972-0.97,0.973l-5.88,0.012
			c-0.536,0.001-0.972-0.433-0.973-0.97l-0.006-2.994c-0.001-0.536,0.432-0.972,0.969-0.973l5.88-0.012
			c0.536-0.001,0.972,0.433,0.973,0.969L159.002,435.573z"/>
		
			<rect x="154.004" y="436.255" transform="matrix(1 -0.0016 0.0016 1 -0.7216 0.2555)" style="fill:#E53328;" width="2.374" height="6.258"/>
		<path style="fill:#E53328;" d="M155.088,441.914c-4.714,0-8.557-3.835-8.568-8.548c-0.01-4.724,3.826-8.574,8.549-8.584
			c4.732,0,8.574,3.835,8.584,8.548c0.009,4.724-3.826,8.574-8.549,8.584H155.088z M155.088,426.402
			c-3.846,0.008-6.956,3.131-6.948,6.961c0.009,3.822,3.125,6.932,6.948,6.932v0.81l0.014-0.81c3.829-0.008,6.939-3.131,6.932-6.961
			C162.025,429.512,158.91,426.402,155.088,426.402z"/>
		<path style="fill:#E53328;" d="M159.955,474.131c0.006,2.636-2.127,4.778-4.763,4.783c-2.636,0.005-4.778-2.127-4.783-4.763
			c-0.006-2.636,2.127-4.778,4.763-4.783C157.808,469.362,159.949,471.494,159.955,474.131z"/>
		<polygon style="fill:#E53328;" points="170.228,460.103 159.072,473.067 156.966,470.969 		"/>
		<path style="fill:#E53328;" d="M177.583,474.795c-0.448,0-0.811-0.362-0.812-0.809l0,0c-0.001-0.448,0.361-0.811,0.809-0.812
			l3.458-0.007c0.447-0.001,0.811,0.361,0.812,0.808l0,0c0.001,0.448-0.362,0.812-0.809,0.812L177.583,474.795z"/>
		<path style="fill:#E53328;" d="M128.95,474.795c-0.448,0.001-0.811-0.362-0.812-0.809l0,0c-0.001-0.448,0.362-0.811,0.809-0.812
			l3.458-0.007c0.448-0.001,0.811,0.361,0.812,0.808l0,0c0.001,0.449-0.362,0.812-0.809,0.813L128.95,474.795z"/>
		<path style="fill:#E53328;" d="M155.808,451.391c0,0.448-0.362,0.811-0.809,0.812l0,0c-0.448,0.001-0.811-0.361-0.812-0.809
			l-0.007-3.458c-0.001-0.448,0.361-0.811,0.808-0.812l0,0c0.448-0.001,0.812,0.362,0.812,0.809L155.808,451.391z"/>
		<path style="fill:#E53328;" d="M155.808,500.025c0.001,0.448-0.362,0.811-0.809,0.812l0,0c-0.448,0.001-0.811-0.362-0.812-0.809
			l-0.007-3.458c-0.001-0.448,0.361-0.811,0.808-0.812l0,0c0.449-0.001,0.812,0.362,0.813,0.809L155.808,500.025z"/>
	</g>
	<g>
		<path style="fill:#FFFFFF;" d="M291.316,455.341l-45.068-22.897c-1.452,1.636-2.721,3.48-3.758,5.521l-2.208,4.346l-8.096,15.936
			c-6.535,12.863-1.405,28.589,11.458,35.125c12.864,6.535,28.589,1.405,35.125-11.458l8.096-15.936l2.208-4.346
			C290.11,459.591,290.851,457.478,291.316,455.341z"/>
		
			<rect x="227.364" y="487.789" transform="matrix(0.453 -0.8915 0.8915 0.453 -305.1429 486.9686)" style="fill:#FFFFFF;" width="33.75" height="8.687"/>
		<path style="fill:#FFFFFF;" d="M194.839,533.633l45.068,22.897c1.451-1.636,2.721-3.48,3.758-5.522l2.208-4.346l8.096-15.936
			c6.535-12.863,1.405-28.589-11.458-35.125c-12.863-6.535-28.589-1.405-35.125,11.458l-8.096,15.936l-2.208,4.346
			C196.046,529.383,195.305,531.496,194.839,533.633z"/>
		<path style="fill:#6EBC1A;" d="M242.707,504.66l6.927-13.634l-7.627-3.875l-6.927,13.634c-8.207-2.001-17.009,1.803-21.001,9.661
			l-5.772,11.361l-1.574,3.099c-0.739,1.455-1.268,2.962-1.599,4.485l32.13,16.323c1.035-1.166,1.94-2.481,2.679-3.936l1.574-3.099
			l5.772-11.361C251.281,519.461,249.163,510.109,242.707,504.66z"/>
		<path style="opacity:0.3;fill:#939389;" d="M238.93,440.503l1.56,0.793l-0.453,0.892l-8.097,15.936
			c-5.939,11.689-2.243,25.741,8.134,33.113l-1.393,2.742c-12.073-4.034-25.601,1.267-31.54,12.957l-8.096,15.936l-0.453,0.892
			l-1.56-0.793c-2.831-1.438-6.292-0.309-7.731,2.522c-1.438,2.831-0.309,6.292,2.522,7.731l24.668,12.532l52.315-102.973
			l-24.668-12.533c-2.831-1.438-6.292-0.309-7.731,2.522C234.97,435.603,236.099,439.065,238.93,440.503z"/>
		<path style="fill:#434242;" d="M296.609,463.357c-1.438,2.831-4.9,3.96-7.731,2.522l-49.703-25.252
			c-2.831-1.438-3.96-4.9-2.522-7.731l0,0c1.438-2.831,4.9-3.96,7.731-2.522l49.703,25.252
			C296.918,457.065,298.047,460.526,296.609,463.357L296.609,463.357z"/>
		<path style="fill:#434242;" d="M189.547,525.617c1.438-2.831,4.9-3.96,7.731-2.522l49.703,25.252
			c2.831,1.438,3.96,4.899,2.522,7.731l0,0c-1.438,2.831-4.9,3.96-7.731,2.522l-49.703-25.252
			C189.237,531.909,188.108,528.448,189.547,525.617L189.547,525.617z"/>
		<path style="fill:#6EBC1A;" d="M237.469,464.417c-3.933,7.84-1.811,17.143,4.621,22.571l-6.927,13.634l7.627,3.875l6.927-13.634
			c8.177,1.994,16.942-1.778,20.954-9.578L237.469,464.417z"/>
	</g>
	<g>
		<g>
			<rect x="554.984" y="378.299" style="fill:#E53328;" width="9.723" height="8.218"/>
			<polygon style="fill:#E53328;" points="550.107,324.787 568.857,324.831 564.504,372.591 555.055,372.575 			"/>
		</g>
	</g>
	<path style="fill:#E9E8E4;" d="M290.001,238.145c0.564-1.905,0.871-3.921,0.871-6.009c0-11.687-9.474-21.161-21.161-21.161
		c-2.796,0-5.464,0.548-7.907,1.533c-4.901-11.52-16.322-19.598-29.631-19.598c-15.959,0-29.198,11.617-31.74,26.855
		c-4.742-2.75-10.245-4.332-16.121-4.332c-17.777,0-32.188,14.411-32.188,32.188s14.411,32.188,32.188,32.188
		c1.282,0,2.544-0.083,3.787-0.229h100.053c10.301,0,18.652-8.351,18.652-18.652v-4.223
		C306.803,247.027,299.434,239.073,290.001,238.145z"/>
	<path style="fill:#FFFFFF;" d="M341.197,216.932c0.143-1.153,0.225-2.326,0.225-3.518c0-15.65-12.687-28.337-28.337-28.337
		c-8.127,0-15.449,3.426-20.616,8.907c-4.018-3.583-9.313-5.764-15.12-5.764c-12.552,0-22.728,10.176-22.728,22.728
		c0,2.054,0.277,4.042,0.788,5.935h-1.803c-9.698,0-17.559,7.861-17.559,17.559S243.908,252,253.605,252h86.331
		c9.698,0,17.559-7.861,17.559-17.559C357.495,225.168,350.305,217.579,341.197,216.932z"/>
	<g>
		<path style="fill:#1CCDF9;" d="M97,277.5c0-2.475-2.25-4.5-5-4.5s-5-2.25-5-5s-2.025-5-4.5-5s-4.5,2.25-4.5,5s-2.25,5-5,5
			s-5,2.025-5,4.5s2.25,4.5,5,4.5s5,2.25,5,5s2.025,5,4.5,5s4.5-2.25,4.5-5s2.25-5,5-5S97,279.975,97,277.5z"/>
	</g>
	<g>
		<path style="fill:#1CCDF9;" d="M82,513.833c0-2.02-1.836-3.672-4.08-3.672c-2.244,0-4.08-1.836-4.08-4.08
			c0-2.244-1.653-4.081-3.672-4.081c-2.02,0-3.672,1.836-3.672,4.081c0,2.244-1.836,4.08-4.081,4.08c-2.244,0-4.08,1.653-4.08,3.672
			c0,2.02,1.836,3.672,4.08,3.672c2.244,0,4.081,1.836,4.081,4.08c0,2.244,1.652,4.081,3.672,4.081c2.02,0,3.672-1.836,3.672-4.081
			c0-2.244,1.836-4.08,4.08-4.08C80.164,517.506,82,515.853,82,513.833z"/>
	</g>
	<g>
		<path style="fill:#FFFFFF;" d="M622.086,110.778c0-2.02-1.836-3.672-4.08-3.672c-2.244,0-4.081-1.836-4.081-4.08
			c0-2.244-1.653-4.08-3.672-4.08c-2.02,0-3.672,1.836-3.672,4.08c0,2.244-1.836,4.08-4.081,4.08c-2.244,0-4.08,1.653-4.08,3.672
			s1.836,3.672,4.08,3.672c2.244,0,4.081,1.836,4.081,4.08c0,2.244,1.653,4.08,3.672,4.08c2.02,0,3.672-1.836,3.672-4.08
			c0-2.244,1.836-4.08,4.081-4.08C620.25,114.45,622.086,112.798,622.086,110.778z"/>
	</g>
	<g>
		<path style="fill:#FFFFFF;" d="M297.541,126.04c1.967-0.459,3.16-2.622,2.65-4.808s0.861-4.391,3.047-4.9
			c2.186-0.51,3.599-2.536,3.14-4.503c-0.459-1.967-2.622-3.159-4.808-2.65c-2.186,0.51-4.391-0.862-4.901-3.047
			s-2.536-3.599-4.503-3.14c-1.967,0.459-3.16,2.622-2.65,4.808s-0.862,4.391-3.047,4.901c-2.186,0.51-3.599,2.536-3.14,4.503
			c0.459,1.967,2.622,3.159,4.808,2.65c2.186-0.51,4.391,0.861,4.901,3.047C293.547,125.086,295.574,126.499,297.541,126.04z"/>
	</g>
	<g>
		<path style="fill:#FFFFFF;" d="M157.602,689.328c1.052-1.724,0.345-4.091-1.571-5.26c-1.916-1.169-2.528-3.692-1.359-5.608
			c1.169-1.916,0.714-4.344-1.01-5.396c-1.724-1.052-4.091-0.345-5.26,1.571c-1.169,1.916-3.692,2.528-5.608,1.359
			c-1.916-1.169-4.344-0.714-5.396,1.011c-1.052,1.724-0.345,4.091,1.571,5.26c1.916,1.169,2.528,3.692,1.359,5.608
			c-1.169,1.916-0.714,4.344,1.011,5.396c1.724,1.052,4.091,0.345,5.26-1.571c1.169-1.916,3.692-2.528,5.608-1.359
			C154.123,691.508,156.551,691.053,157.602,689.328z"/>
	</g>
	<g>
		<path style="fill:#1CCDF9;" d="M740.333,281.5c0-2.02-1.836-3.672-4.08-3.672c-2.244,0-4.081-1.836-4.081-4.081
			c0-2.244-1.653-4.08-3.672-4.08c-2.02,0-3.672,1.836-3.672,4.08c0,2.244-1.836,4.081-4.081,4.081c-2.244,0-4.08,1.653-4.08,3.672
			s1.836,3.672,4.08,3.672c2.244,0,4.081,1.836,4.081,4.081c0,2.244,1.653,4.08,3.672,4.08c2.02,0,3.672-1.836,3.672-4.08
			c0-2.244,1.836-4.081,4.081-4.081C738.497,285.172,740.333,283.52,740.333,281.5z"/>
	</g>
	<g>
		<path style="fill:#1CCDF9;" d="M687,626.833c0-2.02-1.836-3.672-4.081-3.672c-2.244,0-4.08-1.836-4.08-4.08
			c0-2.244-1.653-4.081-3.672-4.081c-2.02,0-3.672,1.836-3.672,4.081c0,2.244-1.836,4.08-4.081,4.08s-4.08,1.653-4.08,3.672
			c0,2.02,1.836,3.672,4.08,3.672s4.081,1.836,4.081,4.08c0,2.244,1.653,4.081,3.672,4.081c2.02,0,3.672-1.836,3.672-4.081
			c0-2.244,1.836-4.08,4.08-4.08C685.164,630.506,687,628.853,687,626.833z"/>
	</g>
	<circle style="fill:#FFFFFF;" cx="525" cy="94.5" r="9.5"/>
	<circle style="fill:#FFFFFF;" cx="721" cy="187.5" r="5.5"/>
	<circle style="fill:#FFFFFF;" cx="95.106" cy="180.102" r="5.5"/>
	<circle style="fill:#FFFFFF;" cx="43" cy="423.5" r="5.5"/>
	<circle style="fill:#FFFFFF;" cx="739" cy="573" r="12.375"/>
	
		<ellipse transform="matrix(0.7071 -0.7071 0.7071 0.7071 -34.6868 166.468)" style="fill:#1CCDF9;" cx="183.601" cy="125.105" rx="9.375" ry="9.375"/>
	
		<ellipse transform="matrix(0.2307 -0.973 0.973 0.2307 343.3006 754.1606)" style="fill:#1CCDF9;" cx="648.578" cy="159.979" rx="9.375" ry="9.375"/>
	<g>
		<g>
			<path style="fill:#3B3A39;" d="M363.747,166.261l-0.151,38.246c0,0,2.116,12.396,46.409,12.396
				c44.292,0,46.257-12.547,46.257-12.547v-40.211h-92.968"/>
			<polygon style="fill:#333231;" points="482.49,156.094 410.08,126.768 408.493,126.768 336.084,156.094 408.191,185.421 
				410.383,185.421 			"/>
			<ellipse style="fill:#3B3A39;" cx="409.778" cy="154.621" rx="7.634" ry="3.326"/>
			<polyline style="fill:none;stroke:#FAD000;stroke-width:2;stroke-miterlimit:10;" points="410.534,153.563 442.733,169.738 
				442.582,241.089 			"/>
			<path style="fill:#FAD000;" d="M447.117,242.903c0,2.505-2.132,4.535-4.762,4.535c-2.63,0-4.762-2.03-4.762-4.535
				c0-2.505,2.132-4.535,4.762-4.535C444.985,238.368,447.117,240.398,447.117,242.903z"/>
			<g>
				<path style="fill:#FAD000;" d="M446.285,251.822c-2.162-6.069-5.699-6.069-7.861,0c-2.162,6.069-0.393,11.035,3.93,11.035
					S448.447,257.891,446.285,251.822z"/>
			</g>
			<ellipse style="fill:#333231;" cx="409.778" cy="154.621" rx="5.812" ry="2.532"/>
		</g>
		<path style="opacity:0.1;fill:#939389;" d="M408.399,126.768l-72.409,29.326l27.659,11.249l-0.147,37.162
			c0,0,2.1,12.258,45.691,12.393v-90.131H408.399z"/>
	</g>
</g>
<g id="DESIGNED_BY_FREEPIK">
	<g>
		<g>
			<g>
				<path style="fill:#4D9FCE;" d="M288.492,774.287v-0.258c-0.349,0.399-0.691,0.725-1.03,0.974
					c-0.339,0.251-0.706,0.441-1.102,0.569c-0.396,0.133-0.827,0.195-1.296,0.195c-0.621,0-1.195-0.13-1.725-0.393
					c-0.528-0.263-0.985-0.639-1.371-1.126c-0.388-0.487-0.68-1.06-0.879-1.72c-0.199-0.658-0.3-1.371-0.3-2.137
					c0-1.62,0.396-2.885,1.188-3.791c0.792-0.904,1.833-1.357,3.125-1.357c0.747,0,1.377,0.129,1.89,0.384
					c0.514,0.256,1.014,0.652,1.501,1.183v-3.827c0-0.533,0.105-0.934,0.318-1.206c0.212-0.272,0.514-0.408,0.907-0.408
					c0.393,0,0.694,0.125,0.906,0.375c0.213,0.251,0.318,0.618,0.318,1.107v11.435c0,0.494-0.113,0.863-0.342,1.111
					c-0.228,0.246-0.521,0.369-0.883,0.369c-0.355,0-0.648-0.127-0.879-0.383C288.607,775.127,288.492,774.762,288.492,774.287z
					 M283.392,770.479c0,0.703,0.109,1.301,0.328,1.795c0.219,0.494,0.518,0.865,0.897,1.115c0.38,0.25,0.795,0.377,1.244,0.377
					c0.456,0,0.872-0.119,1.249-0.357c0.377-0.236,0.678-0.602,0.902-1.092c0.225-0.49,0.337-1.104,0.337-1.838
					c0-0.691-0.112-1.284-0.337-1.783c-0.225-0.495-0.528-0.875-0.912-1.139c-0.383-0.262-0.803-0.392-1.258-0.392
					c-0.475,0-0.899,0.135-1.273,0.402c-0.373,0.269-0.663,0.654-0.868,1.158C283.494,769.229,283.392,769.813,283.392,770.479z"/>
				<path style="fill:#4D9FCE;" d="M299.926,771.135h-5.071c0.007,0.588,0.125,1.107,0.356,1.557c0.23,0.45,0.538,0.789,0.921,1.017
					c0.384,0.229,0.807,0.341,1.269,0.341c0.31,0,0.593-0.035,0.85-0.107c0.257-0.074,0.505-0.188,0.746-0.343
					c0.241-0.154,0.462-0.321,0.665-0.499c0.202-0.178,0.464-0.42,0.788-0.723c0.133-0.113,0.323-0.172,0.57-0.172
					c0.266,0,0.48,0.074,0.645,0.221c0.165,0.147,0.248,0.35,0.248,0.617c0,0.234-0.093,0.507-0.275,0.82
					c-0.185,0.314-0.462,0.615-0.831,0.903c-0.372,0.288-0.836,0.526-1.397,0.717c-0.56,0.19-1.204,0.284-1.933,0.284
					c-1.664,0-2.96-0.475-3.884-1.424c-0.925-0.949-1.387-2.238-1.387-3.865c0-0.767,0.113-1.479,0.342-2.133
					c0.228-0.655,0.56-1.217,0.997-1.685c0.437-0.469,0.975-0.827,1.615-1.078c0.639-0.25,1.349-0.374,2.127-0.374
					c1.013,0,1.882,0.212,2.606,0.641c0.726,0.427,1.27,0.98,1.63,1.655c0.359,0.679,0.541,1.37,0.541,2.071
					c0,0.653-0.186,1.075-0.56,1.27C301.131,771.037,300.604,771.135,299.926,771.135z M294.854,769.662h4.702
					c-0.063-0.887-0.304-1.551-0.718-1.99c-0.415-0.44-0.96-0.66-1.638-0.66c-0.647,0-1.177,0.223-1.591,0.668
					C295.195,768.127,294.944,768.787,294.854,769.662z"/>
				<path style="fill:#4D9FCE;" d="M311.741,772.377c0,0.715-0.174,1.328-0.522,1.839c-0.348,0.509-0.862,0.896-1.544,1.159
					c-0.68,0.263-1.508,0.393-2.483,0.393c-0.931,0-1.729-0.143-2.394-0.427c-0.664-0.284-1.155-0.642-1.472-1.067
					c-0.316-0.429-0.475-0.857-0.475-1.289c0-0.284,0.1-0.527,0.304-0.73c0.202-0.201,0.459-0.303,0.77-0.303
					c0.271,0,0.48,0.066,0.626,0.199c0.147,0.133,0.286,0.32,0.418,0.559c0.266,0.465,0.585,0.808,0.955,1.037
					c0.37,0.227,0.875,0.342,1.516,0.342c0.519,0,0.944-0.117,1.277-0.347c0.332-0.233,0.498-0.496,0.498-0.794
					c0-0.456-0.172-0.787-0.517-0.996c-0.346-0.209-0.914-0.41-1.705-0.6c-0.893-0.221-1.619-0.454-2.18-0.698
					c-0.56-0.242-1.009-0.565-1.344-0.963c-0.336-0.399-0.504-0.891-0.504-1.474c0-0.518,0.155-1.009,0.466-1.472
					c0.31-0.462,0.767-0.831,1.373-1.106c0.604-0.275,1.333-0.414,2.189-0.414c0.671,0,1.274,0.07,1.809,0.211
					c0.536,0.137,0.983,0.326,1.34,0.561c0.358,0.233,0.63,0.492,0.816,0.777c0.187,0.285,0.28,0.564,0.28,0.836
					c0,0.298-0.1,0.541-0.299,0.732c-0.199,0.188-0.482,0.285-0.851,0.285c-0.266,0-0.492-0.076-0.679-0.229
					c-0.186-0.151-0.4-0.38-0.641-0.683c-0.196-0.253-0.427-0.457-0.693-0.608c-0.266-0.152-0.627-0.227-1.083-0.227
					c-0.469,0-0.857,0.098-1.168,0.3c-0.31,0.198-0.466,0.446-0.466,0.743c0,0.273,0.114,0.496,0.342,0.67
					c0.228,0.176,0.535,0.32,0.922,0.434c0.387,0.113,0.917,0.252,1.596,0.416c0.804,0.197,1.46,0.433,1.971,0.704
					c0.509,0.271,0.896,0.593,1.159,0.964C311.61,771.481,311.741,771.902,311.741,772.377z"/>
				<path style="fill:#4D9FCE;" d="M314.39,764.021c-0.36,0-0.669-0.112-0.926-0.333c-0.256-0.221-0.385-0.534-0.385-0.941
					c0-0.367,0.132-0.668,0.395-0.906c0.263-0.238,0.568-0.356,0.916-0.356c0.336,0,0.634,0.107,0.893,0.323
					c0.26,0.216,0.391,0.527,0.391,0.94c0,0.4-0.128,0.712-0.381,0.937S314.738,764.021,314.39,764.021z M315.673,766.697v7.494
					c0,0.519-0.124,0.913-0.371,1.179c-0.247,0.265-0.56,0.397-0.94,0.397c-0.38,0-0.688-0.135-0.926-0.408
					c-0.238-0.271-0.356-0.662-0.356-1.168v-7.418c0-0.512,0.118-0.898,0.356-1.158c0.237-0.26,0.546-0.391,0.926-0.391
					c0.381,0,0.693,0.131,0.94,0.391C315.549,765.875,315.673,766.236,315.673,766.697z"/>
				<path style="fill:#4D9FCE;" d="M327.031,767.125v7.532c0,0.86-0.093,1.603-0.276,2.224c-0.183,0.619-0.478,1.133-0.883,1.537
					c-0.405,0.404-0.936,0.707-1.591,0.902c-0.655,0.197-1.471,0.295-2.446,0.295c-0.893,0-1.69-0.125-2.394-0.375
					c-0.702-0.252-1.243-0.574-1.624-0.969c-0.379-0.396-0.57-0.803-0.57-1.221c0-0.316,0.108-0.576,0.324-0.773
					c0.215-0.201,0.475-0.301,0.778-0.301c0.38,0,0.712,0.169,0.997,0.504c0.139,0.17,0.283,0.345,0.432,0.518
					c0.149,0.175,0.315,0.323,0.494,0.446c0.181,0.123,0.397,0.215,0.65,0.275c0.254,0.059,0.546,0.09,0.874,0.09
					c0.672,0,1.192-0.094,1.563-0.281c0.37-0.185,0.63-0.447,0.778-0.783c0.149-0.334,0.236-0.693,0.262-1.078
					c0.025-0.383,0.044-0.998,0.057-1.848c-0.399,0.559-0.859,0.983-1.383,1.274c-0.521,0.29-1.145,0.437-1.865,0.437
					c-0.868,0-1.626-0.223-2.275-0.665c-0.648-0.444-1.147-1.064-1.495-1.862c-0.349-0.799-0.523-1.718-0.523-2.763
					c0-0.778,0.105-1.483,0.317-2.108c0.213-0.629,0.516-1.156,0.907-1.587c0.393-0.431,0.846-0.755,1.358-0.974
					c0.513-0.218,1.076-0.327,1.69-0.327c0.734,0,1.371,0.142,1.909,0.421c0.538,0.284,1.039,0.726,1.501,1.326v-0.352
					c0-0.449,0.11-0.797,0.332-1.045c0.222-0.246,0.507-0.371,0.855-0.371c0.5,0,0.832,0.164,0.996,0.49
					C326.948,766.041,327.031,766.512,327.031,767.125z M319.519,770.412c0,1.051,0.229,1.846,0.688,2.384
					c0.459,0.538,1.054,0.808,1.781,0.808c0.431,0,0.837-0.116,1.22-0.347c0.384-0.231,0.695-0.581,0.937-1.045
					c0.24-0.466,0.361-1.03,0.361-1.695c0-1.058-0.232-1.882-0.698-2.47c-0.466-0.588-1.078-0.883-1.839-0.883
					c-0.741,0-1.334,0.281-1.78,0.846C319.741,768.572,319.519,769.374,319.519,770.412z"/>
				<path style="fill:#4D9FCE;" d="M331.152,766.66v0.313c0.455-0.602,0.954-1.044,1.495-1.325c0.542-0.281,1.163-0.424,1.866-0.424
					c0.684,0,1.295,0.15,1.834,0.447c0.537,0.299,0.94,0.72,1.205,1.262c0.172,0.318,0.282,0.661,0.333,1.027
					c0.051,0.368,0.077,0.836,0.077,1.406v4.824c0,0.519-0.119,0.913-0.357,1.179c-0.237,0.265-0.546,0.397-0.926,0.397
					c-0.387,0-0.699-0.135-0.94-0.408c-0.241-0.271-0.36-0.662-0.36-1.168v-4.321c0-0.854-0.119-1.509-0.356-1.962
					c-0.238-0.451-0.711-0.679-1.421-0.679c-0.461,0-0.883,0.138-1.263,0.413c-0.38,0.275-0.658,0.654-0.836,1.136
					c-0.126,0.386-0.189,1.107-0.189,2.165v3.248c0,0.525-0.123,0.921-0.365,1.184c-0.244,0.263-0.559,0.393-0.945,0.393
					c-0.374,0-0.681-0.135-0.922-0.408c-0.24-0.271-0.36-0.662-0.36-1.168v-7.494c0-0.493,0.107-0.863,0.322-1.107
					c0.216-0.243,0.51-0.366,0.883-0.366c0.229,0,0.435,0.055,0.619,0.163c0.183,0.108,0.33,0.27,0.441,0.483
					C331.097,766.087,331.152,766.35,331.152,766.66z"/>
				<path style="fill:#4D9FCE;" d="M346.927,771.135h-5.071c0.007,0.588,0.124,1.107,0.356,1.557c0.23,0.45,0.537,0.789,0.921,1.017
					c0.382,0.229,0.806,0.341,1.268,0.341c0.31,0,0.594-0.035,0.851-0.107c0.256-0.074,0.504-0.188,0.746-0.343
					c0.239-0.154,0.461-0.321,0.665-0.499c0.201-0.178,0.464-0.42,0.787-0.723c0.133-0.113,0.323-0.172,0.57-0.172
					c0.266,0,0.482,0.074,0.646,0.221c0.165,0.147,0.247,0.35,0.247,0.617c0,0.234-0.092,0.507-0.275,0.82
					c-0.185,0.314-0.461,0.615-0.832,0.903c-0.37,0.288-0.835,0.526-1.396,0.717c-0.561,0.19-1.205,0.284-1.933,0.284
					c-1.665,0-2.96-0.475-3.886-1.424c-0.923-0.949-1.386-2.238-1.386-3.865c0-0.767,0.114-1.479,0.342-2.133
					c0.227-0.655,0.56-1.217,0.998-1.685c0.436-0.469,0.975-0.827,1.614-1.078c0.639-0.25,1.349-0.374,2.128-0.374
					c1.013,0,1.881,0.212,2.605,0.641c0.726,0.427,1.269,0.98,1.63,1.655c0.36,0.679,0.542,1.37,0.542,2.071
					c0,0.653-0.187,1.075-0.561,1.27C348.131,771.037,347.604,771.135,346.927,771.135z M341.855,769.662h4.701
					c-0.063-0.887-0.303-1.551-0.717-1.99c-0.415-0.44-0.961-0.66-1.639-0.66c-0.647,0-1.177,0.223-1.592,0.668
					C342.194,768.127,341.944,768.787,341.855,769.662z"/>
				<path style="fill:#4D9FCE;" d="M357.496,774.287v-0.258c-0.348,0.399-0.691,0.725-1.03,0.974
					c-0.339,0.251-0.705,0.441-1.102,0.569c-0.395,0.133-0.827,0.195-1.296,0.195c-0.621,0-1.195-0.13-1.724-0.393
					c-0.529-0.263-0.986-0.639-1.373-1.126c-0.387-0.487-0.679-1.06-0.878-1.72c-0.2-0.658-0.3-1.371-0.3-2.137
					c0-1.62,0.396-2.885,1.188-3.791c0.791-0.904,1.833-1.357,3.125-1.357c0.747,0,1.377,0.129,1.89,0.384
					c0.513,0.256,1.014,0.652,1.5,1.183v-3.827c0-0.533,0.106-0.934,0.319-1.206c0.211-0.272,0.515-0.408,0.907-0.408
					c0.392,0,0.694,0.125,0.906,0.375c0.212,0.251,0.318,0.618,0.318,1.107v11.435c0,0.494-0.113,0.863-0.342,1.111
					c-0.228,0.246-0.521,0.369-0.883,0.369c-0.354,0-0.647-0.127-0.879-0.383C357.612,775.127,357.496,774.762,357.496,774.287z
					 M352.396,770.479c0,0.703,0.108,1.301,0.327,1.795c0.219,0.494,0.518,0.865,0.898,1.115c0.38,0.25,0.794,0.377,1.243,0.377
					c0.457,0,0.873-0.119,1.249-0.357c0.377-0.236,0.679-0.602,0.902-1.092c0.226-0.49,0.338-1.104,0.338-1.838
					c0-0.691-0.112-1.284-0.338-1.783c-0.224-0.495-0.528-0.875-0.911-1.139c-0.384-0.262-0.803-0.392-1.259-0.392
					c-0.475,0-0.899,0.135-1.272,0.402c-0.373,0.269-0.663,0.654-0.869,1.158C352.499,769.229,352.396,769.813,352.396,770.479z"/>
				<path style="fill:#4D9FCE;" d="M368.095,762.852v3.96c0.487-0.507,0.984-0.896,1.491-1.163c0.506-0.269,1.134-0.403,1.881-0.403
					c0.861,0,1.615,0.204,2.266,0.611c0.647,0.41,1.151,1.002,1.51,1.776c0.357,0.775,0.537,1.696,0.537,2.76
					c0,0.786-0.101,1.505-0.3,2.161c-0.199,0.655-0.489,1.224-0.869,1.704c-0.38,0.48-0.841,0.854-1.382,1.117
					c-0.542,0.263-1.139,0.393-1.79,0.393c-0.399,0-0.775-0.047-1.126-0.143c-0.352-0.094-0.651-0.218-0.897-0.375
					c-0.246-0.154-0.457-0.313-0.632-0.479c-0.174-0.164-0.404-0.412-0.689-0.742v0.258c0,0.487-0.117,0.855-0.352,1.107
					c-0.233,0.25-0.531,0.373-0.893,0.373c-0.367,0-0.66-0.123-0.879-0.373c-0.219-0.252-0.327-0.62-0.327-1.107v-11.322
					c0-0.525,0.105-0.924,0.317-1.191c0.212-0.269,0.509-0.403,0.889-0.403c0.399,0,0.706,0.128,0.921,0.384
					C367.986,762.012,368.095,762.375,368.095,762.852z M368.218,770.555c0,1.032,0.236,1.824,0.708,2.378
					c0.472,0.555,1.091,0.833,1.856,0.833c0.652,0,1.215-0.283,1.686-0.852c0.472-0.566,0.708-1.378,0.708-2.436
					c0-0.684-0.098-1.273-0.294-1.767c-0.197-0.495-0.475-0.876-0.836-1.146c-0.361-0.268-0.782-0.402-1.264-0.402
					c-0.493,0-0.935,0.135-1.32,0.402c-0.386,0.269-0.689,0.658-0.912,1.168C368.329,769.244,368.218,769.852,368.218,770.555z"/>
				<path style="fill:#4D9FCE;" d="M379.141,776.092l0.237-0.58l-3.191-8.035c-0.196-0.461-0.295-0.798-0.295-1.007
					c0-0.222,0.058-0.427,0.171-0.616c0.114-0.191,0.271-0.344,0.47-0.456c0.2-0.115,0.407-0.173,0.623-0.173
					c0.373,0,0.654,0.12,0.846,0.357c0.19,0.237,0.357,0.576,0.503,1.02l2.194,6.383l2.08-5.936c0.164-0.48,0.313-0.857,0.446-1.131
					c0.133-0.272,0.273-0.455,0.422-0.549c0.148-0.096,0.359-0.144,0.632-0.144c0.197,0,0.385,0.053,0.565,0.158
					c0.181,0.104,0.319,0.245,0.418,0.422c0.098,0.178,0.147,0.363,0.147,0.56c-0.026,0.119-0.066,0.291-0.124,0.514
					c-0.058,0.221-0.126,0.447-0.208,0.674l-3.382,8.852c-0.292,0.779-0.576,1.389-0.855,1.833
					c-0.278,0.442-0.646,0.785-1.106,1.021c-0.459,0.238-1.078,0.357-1.856,0.357c-0.76,0-1.33-0.082-1.709-0.246
					c-0.381-0.166-0.57-0.467-0.57-0.903c0-0.298,0.09-0.527,0.271-0.689c0.18-0.161,0.447-0.244,0.801-0.244
					c0.14,0,0.276,0.021,0.409,0.059c0.165,0.037,0.307,0.058,0.427,0.058c0.298,0,0.532-0.044,0.704-0.134
					c0.17-0.088,0.323-0.241,0.46-0.461C378.806,776.838,378.963,776.516,379.141,776.092z"/>
			</g>
			<g>
				<g>
					<path style="fill:#4D9FCE;" d="M416.703,765.45h0.619v-0.778c0-0.814,0.099-1.457,0.306-1.938
						c0.204-0.478,0.556-0.826,1.047-1.045c0.491-0.217,1.163-0.326,2.017-0.326c1.52,0,2.273,0.367,2.273,1.113
						c0,0.239-0.079,0.445-0.239,0.615c-0.154,0.17-0.344,0.257-0.559,0.257c-0.1,0-0.278-0.018-0.527-0.059
						c-0.237-0.033-0.452-0.056-0.623-0.056c-0.467,0-0.767,0.141-0.904,0.415c-0.128,0.275-0.195,0.668-0.195,1.185v0.617h0.633
						c0.99,0,1.48,0.296,1.48,0.896c0,0.418-0.127,0.69-0.393,0.805c-0.262,0.113-0.624,0.17-1.088,0.17h-0.633v6.871
						c0,0.512-0.121,0.9-0.37,1.168c-0.241,0.273-0.554,0.407-0.942,0.407c-0.367,0-0.671-0.134-0.918-0.407
						c-0.244-0.268-0.363-0.656-0.363-1.168v-6.871h-0.715c-0.389,0-0.683-0.083-0.893-0.262c-0.209-0.17-0.315-0.398-0.315-0.677
						C415.399,765.758,415.834,765.45,416.703,765.45"/>
					<path style="fill:#4D9FCE;" d="M425.192,772.024v2.167c0,0.524-0.133,0.92-0.374,1.18c-0.246,0.267-0.559,0.396-0.938,0.396
						c-0.382,0-0.688-0.132-0.927-0.4c-0.236-0.265-0.36-0.657-0.36-1.175v-7.222c0-1.166,0.42-1.749,1.261-1.749
						c0.434,0,0.743,0.135,0.934,0.408s0.295,0.674,0.317,1.208c0.308-0.534,0.624-0.935,0.948-1.208
						c0.333-0.273,0.763-0.408,1.31-0.408c0.549,0,1.072,0.135,1.586,0.408c0.515,0.273,0.771,0.637,0.771,1.084
						c0,0.315-0.11,0.58-0.325,0.782c-0.221,0.209-0.455,0.311-0.707,0.311c-0.1,0-0.33-0.063-0.692-0.18
						c-0.365-0.113-0.689-0.173-0.963-0.173c-0.38,0-0.692,0.102-0.932,0.298c-0.242,0.205-0.431,0.497-0.564,0.887
						c-0.13,0.395-0.22,0.865-0.273,1.404C425.215,770.584,425.192,771.246,425.192,772.024"/>
					<path style="fill:#4D9FCE;" d="M437.113,771.132h-5.074c0.01,0.588,0.124,1.11,0.355,1.559
						c0.234,0.446,0.539,0.786,0.924,1.017c0.385,0.227,0.804,0.34,1.268,0.34c0.311,0,0.593-0.033,0.85-0.111
						c0.254-0.069,0.505-0.185,0.745-0.341c0.242-0.153,0.46-0.319,0.664-0.5c0.203-0.175,0.467-0.416,0.791-0.72
						c0.134-0.112,0.324-0.174,0.567-0.174c0.269,0,0.481,0.074,0.649,0.223c0.166,0.146,0.243,0.351,0.243,0.617
						c0,0.234-0.089,0.508-0.268,0.818c-0.188,0.318-0.463,0.617-0.835,0.907c-0.375,0.284-0.84,0.526-1.398,0.714
						c-0.559,0.19-1.205,0.286-1.932,0.286c-1.67,0-2.964-0.474-3.887-1.422c-0.924-0.952-1.391-2.243-1.391-3.868
						c0-0.768,0.116-1.479,0.347-2.135c0.225-0.658,0.558-1.217,0.999-1.688c0.436-0.471,0.971-0.828,1.612-1.078
						c0.638-0.25,1.347-0.375,2.128-0.375c1.011,0,1.881,0.215,2.606,0.647c0.725,0.423,1.274,0.977,1.629,1.654
						c0.362,0.681,0.542,1.368,0.542,2.074c0,0.648-0.189,1.07-0.562,1.266C438.315,771.035,437.791,771.132,437.113,771.132
						 M432.039,769.657h4.702c-0.063-0.885-0.299-1.55-0.715-1.986c-0.418-0.442-0.959-0.661-1.64-0.661
						c-0.646,0-1.178,0.221-1.592,0.67C432.38,768.125,432.126,768.783,432.039,769.657"/>
					<path style="fill:#4D9FCE;" d="M447.9,771.132h-5.072c0.005,0.588,0.125,1.11,0.353,1.559c0.232,0.446,0.539,0.786,0.922,1.017
						c0.383,0.227,0.805,0.34,1.271,0.34c0.308,0,0.593-0.033,0.845-0.111c0.26-0.069,0.506-0.185,0.75-0.341
						c0.242-0.153,0.46-0.319,0.664-0.5c0.199-0.175,0.464-0.416,0.788-0.72c0.136-0.112,0.326-0.174,0.569-0.174
						c0.268,0,0.482,0.074,0.65,0.223c0.164,0.146,0.239,0.351,0.239,0.617c0,0.234-0.087,0.508-0.272,0.818
						c-0.178,0.318-0.456,0.617-0.831,0.907c-0.369,0.284-0.84,0.526-1.396,0.714c-0.557,0.19-1.207,0.286-1.934,0.286
						c-1.668,0-2.96-0.474-3.888-1.422c-0.923-0.952-1.389-2.243-1.389-3.868c0-0.768,0.116-1.479,0.349-2.135
						c0.226-0.658,0.559-1.217,0.996-1.688c0.435-0.471,0.972-0.828,1.613-1.078c0.638-0.25,1.351-0.375,2.129-0.375
						c1.009,0,1.879,0.215,2.613,0.647c0.72,0.423,1.266,0.977,1.621,1.654c0.359,0.681,0.545,1.368,0.545,2.074
						c0,0.648-0.191,1.07-0.561,1.266C449.101,771.035,448.576,771.132,447.9,771.132 M442.828,769.657h4.7
						c-0.064-0.885-0.304-1.55-0.715-1.986c-0.421-0.442-0.962-0.661-1.643-0.661c-0.646,0-1.176,0.221-1.593,0.67
						C443.166,768.125,442.912,768.783,442.828,769.657"/>
					<path style="fill:#4D9FCE;" d="M453.58,766.68v0.31c0.486-0.602,0.994-1.043,1.524-1.324c0.518-0.284,1.118-0.428,1.782-0.428
						c0.795,0,1.535,0.209,2.207,0.618c0.672,0.414,1.198,1.015,1.589,1.806c0.391,0.796,0.587,1.73,0.587,2.815
						c0,0.796-0.112,1.531-0.337,2.201c-0.224,0.668-0.537,1.227-0.929,1.68c-0.393,0.45-0.855,0.801-1.389,1.046
						c-0.542,0.241-1.112,0.363-1.728,0.363c-0.738,0-1.363-0.149-1.865-0.447c-0.502-0.292-0.982-0.733-1.441-1.306v3.893
						c0,1.135-0.416,1.71-1.244,1.71c-0.49,0-0.809-0.146-0.971-0.44c-0.152-0.298-0.234-0.723-0.234-1.291v-11.193
						c0-0.494,0.106-0.858,0.32-1.107c0.215-0.238,0.512-0.363,0.885-0.363c0.369,0,0.666,0.125,0.897,0.374
						C453.467,765.849,453.58,766.205,453.58,766.68 M458.664,770.447c0-0.685-0.107-1.273-0.315-1.764
						c-0.209-0.492-0.499-0.867-0.866-1.127c-0.367-0.264-0.782-0.396-1.232-0.396c-0.714,0-1.318,0.284-1.809,0.844
						c-0.492,0.566-0.739,1.396-0.739,2.492c0,1.027,0.245,1.834,0.735,2.407c0.487,0.573,1.086,0.858,1.813,0.858
						c0.429,0,0.831-0.127,1.198-0.373c0.371-0.252,0.664-0.626,0.883-1.126C458.554,771.76,458.664,771.154,458.664,770.447"/>
					<path style="fill:#4D9FCE;" d="M463.88,764.014c-0.362,0-0.669-0.114-0.923-0.335c-0.259-0.224-0.387-0.532-0.387-0.937
						c0-0.368,0.13-0.67,0.396-0.91c0.263-0.234,0.566-0.355,0.914-0.355c0.34,0,0.636,0.106,0.893,0.319
						c0.26,0.218,0.391,0.534,0.391,0.946c0,0.399-0.127,0.711-0.377,0.935C464.532,763.899,464.232,764.014,463.88,764.014
						 M465.164,766.691v7.503c0,0.515-0.123,0.907-0.369,1.172c-0.25,0.269-0.561,0.4-0.941,0.4c-0.382,0-0.685-0.134-0.929-0.407
						c-0.233-0.275-0.354-0.664-0.354-1.165v-7.428c0-0.51,0.121-0.896,0.354-1.154c0.243-0.265,0.547-0.392,0.929-0.392
						c0.38,0,0.691,0.127,0.941,0.392C465.041,765.871,465.164,766.234,465.164,766.691"/>
					<path style="fill:#4D9FCE;" d="M473.523,774.583l-2.283-3.767l-1.408,1.329v2.065c0,0.498-0.133,0.881-0.397,1.148
						c-0.256,0.273-0.566,0.407-0.906,0.407c-0.398,0-0.715-0.132-0.94-0.4c-0.227-0.265-0.344-0.657-0.344-1.175v-11.063
						c0-0.574,0.114-1.012,0.331-1.313c0.224-0.306,0.545-0.452,0.953-0.452c0.4,0,0.713,0.137,0.95,0.411
						c0.233,0.271,0.354,0.673,0.354,1.202v6.293l2.915-3.063c0.362-0.377,0.633-0.641,0.827-0.778c0.19-0.14,0.42-0.208,0.69-0.208
						c0.326,0,0.594,0.104,0.815,0.309c0.212,0.205,0.32,0.466,0.32,0.773c0,0.379-0.353,0.889-1.055,1.522l-1.377,1.263
						l2.659,4.183c0.193,0.314,0.339,0.544,0.424,0.705c0.084,0.16,0.131,0.32,0.131,0.463c0,0.412-0.115,0.734-0.342,0.975
						c-0.224,0.237-0.523,0.354-0.886,0.354c-0.316,0-0.564-0.081-0.733-0.257C474.051,775.338,473.813,775.027,473.523,774.583"/>
					<path style="fill:#4D9FCE;" d="M479.159,775.767c-0.392,0-0.728-0.126-1.014-0.382c-0.284-0.248-0.429-0.606-0.429-1.065
						c0-0.385,0.138-0.719,0.41-0.994c0.274-0.279,0.607-0.419,1.008-0.419c0.397,0,0.735,0.14,1.022,0.412
						c0.279,0.275,0.422,0.612,0.422,1.001c0,0.453-0.143,0.809-0.422,1.061C479.87,775.641,479.538,775.767,479.159,775.767"/>
					<path style="fill:#4D9FCE;" d="M492.058,772.557c0,0.32-0.097,0.668-0.291,1.034c-0.191,0.37-0.488,0.718-0.886,1.05
						c-0.395,0.332-0.891,0.602-1.494,0.804c-0.602,0.202-1.281,0.306-2.031,0.306c-1.607,0-2.858-0.469-3.758-1.4
						c-0.895-0.935-1.346-2.189-1.346-3.76c0-1.067,0.205-2.006,0.619-2.824c0.407-0.814,1.004-1.447,1.781-1.895
						c0.779-0.447,1.717-0.67,2.795-0.67c0.673,0,1.287,0.099,1.852,0.295c0.561,0.195,1.033,0.451,1.426,0.76
						c0.387,0.314,0.685,0.643,0.889,0.992c0.207,0.352,0.308,0.681,0.308,0.986c0,0.309-0.113,0.572-0.343,0.788
						c-0.235,0.215-0.516,0.323-0.838,0.323c-0.22,0-0.398-0.057-0.541-0.166c-0.145-0.111-0.305-0.289-0.479-0.541
						c-0.317-0.478-0.646-0.842-0.995-1.08c-0.344-0.242-0.781-0.361-1.314-0.361c-0.762,0-1.384,0.298-1.854,0.897
						c-0.468,0.596-0.703,1.419-0.703,2.454c0,0.488,0.063,0.939,0.184,1.348c0.116,0.407,0.291,0.756,0.52,1.044
						c0.23,0.286,0.504,0.505,0.826,0.654c0.324,0.153,0.681,0.226,1.065,0.226c0.52,0,0.966-0.12,1.336-0.361
						c0.376-0.24,0.703-0.607,0.986-1.102c0.158-0.291,0.327-0.518,0.509-0.684c0.183-0.164,0.409-0.249,0.676-0.249
						c0.316,0,0.58,0.122,0.787,0.362C491.951,772.027,492.058,772.286,492.058,772.557"/>
					<path style="fill:#4D9FCE;" d="M503.248,770.496c0,0.77-0.122,1.484-0.355,2.139c-0.247,0.652-0.592,1.213-1.05,1.679
						c-0.455,0.469-1.002,0.828-1.632,1.079c-0.639,0.248-1.35,0.375-2.138,0.375c-0.786,0-1.494-0.127-2.122-0.383
						c-0.623-0.248-1.17-0.613-1.626-1.081c-0.46-0.478-0.809-1.034-1.052-1.677c-0.228-0.644-0.35-1.354-0.35-2.131
						c0-0.787,0.123-1.506,0.358-2.158c0.241-0.654,0.588-1.213,1.038-1.674c0.451-0.461,0.993-0.816,1.631-1.069
						c0.643-0.249,1.35-0.374,2.122-0.374c0.784,0,1.497,0.125,2.138,0.381c0.639,0.252,1.184,0.615,1.644,1.08
						c0.458,0.475,0.803,1.029,1.04,1.672C503.128,769.004,503.248,769.713,503.248,770.496 M500.645,770.496
						c0-1.059-0.234-1.881-0.697-2.469c-0.464-0.596-1.09-0.889-1.874-0.889c-0.509,0-0.956,0.133-1.344,0.395
						c-0.387,0.262-0.681,0.649-0.89,1.164c-0.209,0.514-0.315,1.113-0.315,1.799c0,0.679,0.103,1.268,0.31,1.773
						c0.208,0.51,0.502,0.897,0.886,1.166c0.386,0.266,0.835,0.404,1.353,0.404c0.784,0,1.41-0.297,1.874-0.892
						C500.41,772.357,500.645,771.537,500.645,770.496"/>
					<path style="fill:#4D9FCE;" d="M513.141,770.687v3.446c0,0.547-0.121,0.951-0.37,1.227c-0.25,0.273-0.571,0.408-0.978,0.408
						c-0.393,0-0.714-0.135-0.951-0.408c-0.247-0.275-0.372-0.68-0.372-1.227v-4.131c0-0.653-0.021-1.162-0.063-1.525
						c-0.046-0.353-0.169-0.654-0.362-0.882c-0.197-0.235-0.51-0.353-0.932-0.353c-0.851,0-1.406,0.291-1.677,0.882
						c-0.267,0.576-0.405,1.413-0.405,2.507v3.502c0,0.538-0.123,0.946-0.361,1.224c-0.25,0.273-0.568,0.411-0.966,0.411
						c-0.396,0-0.717-0.139-0.967-0.411c-0.251-0.277-0.376-0.685-0.376-1.224v-7.42c0-0.488,0.111-0.859,0.336-1.111
						c0.228-0.256,0.525-0.381,0.889-0.381c0.357,0,0.651,0.123,0.893,0.355c0.235,0.238,0.354,0.566,0.354,0.984v0.244
						c0.453-0.534,0.935-0.931,1.444-1.18c0.517-0.26,1.082-0.387,1.714-0.387c0.65,0,1.21,0.132,1.677,0.391
						c0.47,0.26,0.854,0.654,1.161,1.176c0.439-0.527,0.908-0.922,1.409-1.18c0.501-0.258,1.054-0.387,1.662-0.387
						c0.706,0,1.321,0.143,1.834,0.42c0.511,0.278,0.894,0.68,1.147,1.195c0.221,0.473,0.33,1.21,0.33,2.217v5.063
						c0,0.547-0.121,0.951-0.367,1.227c-0.246,0.273-0.574,0.408-0.979,0.408c-0.396,0-0.715-0.139-0.966-0.411
						c-0.25-0.277-0.376-0.685-0.376-1.224v-4.361c0-0.559-0.023-1.004-0.069-1.338c-0.047-0.338-0.177-0.62-0.382-0.847
						c-0.213-0.228-0.531-0.345-0.953-0.345c-0.342,0-0.666,0.107-0.975,0.309c-0.307,0.198-0.547,0.477-0.721,0.813
						C513.238,768.801,513.141,769.576,513.141,770.687"/>
				</g>
				<g>
					<path style="fill:#4D9FCE;" d="M392.435,769.867c-0.002-0.004-0.002-0.009-0.002-0.018
						C392.434,769.858,392.434,769.863,392.435,769.867z"/>
					<path style="fill:#4D9FCE;" d="M392.566,770.697c0.002,0,0.002,0,0.003,0c-0.05-0.236-0.089-0.471-0.119-0.702
						C392.48,770.229,392.52,770.463,392.566,770.697z"/>
					<path style="fill:#4D9FCE;" d="M393.425,773.104c-0.006-0.01-0.011-0.022-0.018-0.033
						C393.414,773.082,393.419,773.094,393.425,773.104z"/>
					<path style="fill:#4D9FCE;" d="M393.343,772.943c-0.023-0.044-0.044-0.09-0.066-0.135
						C393.299,772.856,393.32,772.899,393.343,772.943z"/>
					<path style="fill:#4D9FCE;" d="M392.808,771.624c0.127,0.4,0.279,0.788,0.457,1.158c-0.181-0.378-0.33-0.767-0.454-1.158
						C392.81,771.624,392.809,771.624,392.808,771.624z"/>
					<path style="fill:#4D9FCE;" d="M402.473,759.932c0.501,0,0.871,0.039,1.295,0.111l0.12-0.764c0,0-1.171-0.359-2.71-0.233
						l-0.121-0.415c0.479-0.102,0.838-0.526,0.838-1.035c0-0.582-0.475-1.053-1.058-1.053s-1.056,0.471-1.056,1.053
						c0,0.509,0.358,0.934,0.836,1.035l0.134,0.463c-1.634,0.225-2.935,0.861-2.935,0.861l0.23,0.706
						c0.988-0.329,1.846-0.529,2.624-0.614C401.433,759.967,402.006,759.932,402.473,759.932z"/>
					<path style="fill:#4D9FCE;" d="M393.405,763.789l0.006-0.007c0.038-0.05,0.075-0.097,0.113-0.144l-0.314-0.225l-0.487-0.357
						c-0.027,0.038-0.795,0.743-1.401,2.048c-0.025-0.041-0.056-0.081-0.09-0.119c-0.182-0.199-0.436-0.3-0.759-0.295
						c-0.004,0-0.009,0-0.015,0c-0.199,0-0.337-0.066-0.427-0.146c0.09-0.113,0.144-0.256,0.144-0.413c0-0.368-0.3-0.669-0.67-0.669
						c-0.368,0-0.668,0.301-0.668,0.669c0,0.37,0.3,0.669,0.668,0.669c0.059,0,0.113-0.01,0.167-0.021
						c0.165,0.184,0.426,0.342,0.808,0.334c0.197-0.001,0.341,0.049,0.438,0.156c0.111,0.121,0.148,0.296,0.16,0.428
						c-0.001,0.002-0.001,0.004-0.003,0.004c-0.436,1.19-0.311,2.67-0.311,2.67l1.058,0.043c0.022-0.539,0.099-1.483,0.371-2.231
						C392.719,764.734,393.378,763.828,393.405,763.789z"/>
					<path style="fill:#4D9FCE;" d="M411.672,760.815c-0.368,0-0.669,0.298-0.669,0.669c0,0.057,0.009,0.111,0.023,0.165
						c-0.184,0.166-0.343,0.427-0.337,0.81c0.003,0.198-0.048,0.341-0.154,0.438c-0.085,0.074-0.191,0.115-0.295,0.141
						c-0.787-1.104-1.757-1.775-1.757-1.775l-0.759,0.813c0.574,0.521,1.159,1.175,1.729,1.99c0.394,0.563,0.799,1.29,1.136,2.015
						l1.024-0.486c0,0-0.468-1.155-1.126-2.192c0.114-0.04,0.229-0.102,0.331-0.193c0.201-0.18,0.299-0.436,0.293-0.758
						c-0.002-0.207,0.067-0.348,0.148-0.441c0.114,0.088,0.257,0.143,0.412,0.143c0.371,0,0.67-0.3,0.67-0.669
						C412.342,761.113,412.043,760.815,411.672,760.815z"/>
					<path style="fill:#4D9FCE;" d="M409.016,770.018c-1.41,0.687-3.729,1.594-6.782,2.02c-1.198,0.166-2.359,0.227-3.428,0.227
						c-1.391,0-2.62-0.103-3.563-0.223c-1.076-0.135-1.918-0.301-2.433-0.417c0.124,0.392,0.274,0.78,0.454,1.158
						c0.003,0.009,0.008,0.02,0.013,0.026c0.022,0.045,0.043,0.091,0.066,0.135c0.021,0.044,0.043,0.086,0.064,0.127
						c0.007,0.012,0.012,0.023,0.018,0.033c0.303,0.57,0.666,1.094,1.08,1.549c1.44,1.574,2.907,1.824,2.921,1.826l0.023,0.003
						l0.022,0.007c0.013,0.006,1.313,0.426,3.291,0.426c1.945,0,3.854-0.393,5.674-1.168c1.348-0.688,2.622-1.736,3.254-2.67
						c0.489-0.722,0.842-1.492,1.051-2.293c0.11-0.426,0.198-1.107,0.146-1.825C410.491,769.225,409.863,769.604,409.016,770.018z"
						/>
					<path style="fill:#4D9FCE;" d="M393.857,764.124c-0.041,0.06-0.652,0.925-1.135,2.253c-0.362,0.994-0.346,2.443-0.346,2.46
						v0.003c0,0.34,0.018,0.677,0.057,1.01c0,0.009,0,0.014,0.002,0.018c0.004,0.044,0.011,0.084,0.015,0.128
						c0.03,0.232,0.069,0.466,0.119,0.702c0.7,0.178,4.878,1.152,9.548,0.502c2.928-0.408,5.149-1.273,6.499-1.927
						c1.121-0.544,1.842-1.036,2.12-1.239c-0.277-1.027-1.041-2.641-1.742-3.646c-2.006-2.865-4.168-3.601-5.278-3.783
						c-0.424-0.069-0.763-0.109-1.243-0.109c-0.447,0-1.002,0.036-1.743,0.114c-0.743,0.077-1.571,0.272-2.532,0.596
						c-1.348,0.451-2.567,1.158-3.526,2.048l-0.033,0.03C394.496,763.414,394.199,763.69,393.857,764.124z M406.127,763.457
						c0.961,0,1.743,0.781,1.743,1.743s-0.782,1.744-1.743,1.744c-0.961,0-1.742-0.782-1.742-1.744S405.166,763.457,406.127,763.457
						z M397.886,763.388c1.557,0,2.816,1.262,2.816,2.817c0,1.555-1.26,2.814-2.816,2.814c-1.555,0-2.816-1.26-2.816-2.814
						C395.069,764.649,396.331,763.388,397.886,763.388z"/>
				</g>
			</g>
		</g>
	</g>
</g>
</svg>
